<svg width="11" height="10" viewBox="0 0 11 10" fill="none" xmlns="http://www.w3.org/2000/svg">
<path d="M4.99338 2.84475C4.99338 4.12875 4.08138 5.05275 2.79738 5.05275C1.52538 5.05275 0.613375 4.12875 0.613375 2.84475C0.613375 1.54875 1.52538 0.624749 2.79738 0.624749C4.08138 0.624749 4.99338 1.54875 4.99338 2.84475ZM9.56538 0.804749L2.97738 9.46875H1.82538L8.41338 0.804749H9.56538ZM4.06938 2.84475C4.06938 2.06475 3.55338 1.52475 2.79738 1.52475C2.05338 1.52475 1.53738 2.06475 1.53738 2.84475C1.53738 3.61275 2.05338 4.15275 2.79738 4.15275C3.54138 4.15275 4.06938 3.61275 4.06938 2.84475ZM10.8014 7.41675C10.8014 8.70075 9.87738 9.62475 8.60538 9.62475C7.33338 9.62475 6.40938 8.70075 6.40938 7.41675C6.40938 6.12075 7.33338 5.20875 8.60538 5.20875C9.87738 5.20875 10.8014 6.12075 10.8014 7.41675ZM9.86538 7.41675C9.86538 6.63675 9.36138 6.09675 8.60538 6.09675C7.86138 6.09675 7.34538 6.63675 7.34538 7.41675C7.34538 8.18475 7.86138 8.72475 8.60538 8.72475C9.34938 8.72475 9.86538 8.18475 9.86538 7.41675Z" fill="#22C55E"/>
</svg>
