<svg width="12" height="10" viewBox="0 0 12 10" fill="none" xmlns="http://www.w3.org/2000/svg">
<path d="M5.21994 2.33889C5.21994 3.62289 4.30794 4.54689 3.02394 4.54689C1.75194 4.54689 0.839938 3.62289 0.839938 2.33889C0.839938 1.04289 1.75194 0.11889 3.02394 0.11889C4.30794 0.11889 5.21994 1.04289 5.21994 2.33889ZM9.79194 0.29889L3.20394 8.96289H2.05194L8.63994 0.29889H9.79194ZM4.29594 2.33889C4.29594 1.55889 3.77994 1.01889 3.02394 1.01889C2.27994 1.01889 1.76394 1.55889 1.76394 2.33889C1.76394 3.10689 2.27994 3.64689 3.02394 3.64689C3.76794 3.64689 4.29594 3.10689 4.29594 2.33889ZM11.0279 6.91089C11.0279 8.19489 10.1039 9.11889 8.83194 9.11889C7.55994 9.11889 6.63594 8.19489 6.63594 6.91089C6.63594 5.61489 7.55994 4.70289 8.83194 4.70289C10.1039 4.70289 11.0279 5.61489 11.0279 6.91089ZM10.0919 6.91089C10.0919 6.13089 9.58794 5.59089 8.83194 5.59089C8.08794 5.59089 7.57194 6.13089 7.57194 6.91089C7.57194 7.67889 8.08794 8.21889 8.83194 8.21889C9.57594 8.21889 10.0919 7.67889 10.0919 6.91089Z" fill="#22C55E"/>
</svg>
