<svg width="60" height="61" viewBox="0 0 60 61" fill="none" xmlns="http://www.w3.org/2000/svg">
<path d="M30 4.25C36.9619 4.25 43.6387 7.01562 48.5616 11.9384C53.4844 16.8613 56.25 23.5381 56.25 30.5C56.25 37.4619 53.4844 44.1387 48.5616 49.0616C43.6387 53.9844 36.9619 56.75 30 56.75C23.0381 56.75 16.3613 53.9844 11.4384 49.0616C6.51562 44.1387 3.75 37.4619 3.75 30.5C3.75 23.5381 6.51562 16.8613 11.4384 11.9384C16.3613 7.01562 23.0381 4.25 30 4.25ZM26.73 35.6787L20.8988 29.8438C20.6897 29.6347 20.4415 29.4689 20.1684 29.3557C19.8953 29.2426 19.6025 29.1844 19.3069 29.1844C19.0112 29.1844 18.7185 29.2426 18.4454 29.3557C18.1722 29.4689 17.924 29.6347 17.715 29.8438C17.2928 30.2659 17.0556 30.8386 17.0556 31.4356C17.0556 32.0327 17.2928 32.6053 17.715 33.0275L25.14 40.4525C25.3485 40.6626 25.5964 40.8293 25.8697 40.9431C26.1429 41.0569 26.4359 41.1155 26.7319 41.1155C27.0278 41.1155 27.3209 41.0569 27.5941 40.9431C27.8673 40.8293 28.1153 40.6626 28.3237 40.4525L43.6987 25.0737C43.9106 24.8656 44.0791 24.6175 44.1946 24.3439C44.3101 24.0702 44.3703 23.7764 44.3717 23.4794C44.373 23.1824 44.3156 22.8881 44.2027 22.6134C44.0897 22.3387 43.9235 22.0891 43.7136 21.8789C43.5037 21.6688 43.2543 21.5023 42.9797 21.389C42.7052 21.2757 42.4109 21.2179 42.1139 21.219C41.8169 21.22 41.523 21.2798 41.2492 21.395C40.9754 21.5102 40.7272 21.6784 40.5188 21.89L26.73 35.6787Z" fill="#228B22"/>
</svg>
