<svg width="62" height="68" viewBox="0 0 62 68" fill="none" xmlns="http://www.w3.org/2000/svg">
<g clip-path="url(#clip0_5385_66127)">
<mask id="mask0_5385_66127" style="mask-type:luminance" maskUnits="userSpaceOnUse" x="0" y="0" width="62" height="68">
<path d="M61.1641 0.234375H0.835938V67.6008H61.1641V0.234375Z" fill="white"/>
</mask>
<g mask="url(#mask0_5385_66127)">
<g opacity="0.1">
<path d="M30.9995 7.48047C45.5383 7.48047 57.3428 19.2849 57.3428 33.8237C57.3428 48.3626 45.5383 60.167 30.9995 60.167C16.4607 60.167 4.65625 48.3626 4.65625 33.8237C4.65625 19.2849 16.4607 7.48047 30.9995 7.48047Z" fill="#EF4444"/>
</g>
<g opacity="0.2">
<path d="M31.0008 10.6953C43.764 10.6953 54.1267 21.058 54.1267 33.8212C54.1267 46.5843 43.764 56.947 31.0008 56.947C18.2377 56.947 7.875 46.5843 7.875 33.8212C7.875 21.058 18.2377 10.6953 31.0008 10.6953Z" fill="#EF4444"/>
</g>
<path d="M30.9985 15.1172C41.3199 15.1172 49.7001 23.4974 49.7001 33.8188C49.7001 44.1402 41.3199 52.5204 30.9985 52.5204C20.6771 52.5204 12.2969 44.1402 12.2969 33.8188C12.2969 23.4974 20.6771 15.1172 30.9985 15.1172Z" fill="#EF4444"/>
<g opacity="0.2">
<path d="M24.2393 23.9716L40.8543 40.5866L37.7634 43.6775L21.1484 27.0625L24.2393 23.9716Z" fill="white"/>
</g>
<g opacity="0.6">
<path d="M24.2393 23.9716L40.8543 40.5866L37.7634 43.6775L21.1484 27.0625L24.2393 23.9716Z" fill="white"/>
</g>
<path d="M24.2393 23.9677L40.8543 40.5827L37.7634 43.6736L21.1484 27.0586L24.2393 23.9677Z" fill="white"/>
<path d="M40.8484 27.0596L24.2334 43.6746L21.1426 40.5837L37.7576 23.9688L40.8484 27.0596Z" fill="white"/>
</g>
</g>
<defs>
<clipPath id="clip0_5385_66127">
<rect width="60.3281" height="67.3664" fill="white" transform="translate(0.835938 0.234375)"/>
</clipPath>
</defs>
</svg>
