<svg width="23" height="22" viewBox="0 0 23 22" fill="none" xmlns="http://www.w3.org/2000/svg">
<path d="M16.3922 13.1054C16.4795 12.385 16.545 11.6646 16.545 10.9224C16.545 10.1803 16.4795 9.45988 16.3922 8.73952H20.0813C20.2559 9.43806 20.3651 10.1693 20.3651 10.9224C20.3651 11.6756 20.2559 12.4068 20.0813 13.1054M14.4603 19.1739C15.1152 17.9624 15.6172 16.6526 15.9665 15.2883H19.1863C18.1289 17.1092 16.4512 18.4885 14.4603 19.1739ZM14.1874 13.1054H9.07936C8.97021 12.385 8.90473 11.6646 8.90473 10.9224C8.90473 10.1803 8.97021 9.44897 9.07936 8.73952H14.1874C14.2856 9.44897 14.362 10.1803 14.362 10.9224C14.362 11.6646 14.2856 12.385 14.1874 13.1054ZM11.6334 19.6105C10.7275 18.3007 9.99619 16.8491 9.54869 15.2883H13.7181C13.2706 16.8491 12.5393 18.3007 11.6334 19.6105ZM7.26753 6.55659H4.08046C5.12701 4.73081 6.80343 3.34931 8.79558 2.67098C8.1407 3.88251 7.64954 5.19226 7.26753 6.55659ZM4.08046 15.2883H7.26753C7.64954 16.6526 8.1407 17.9624 8.79558 19.1739C6.80761 18.4881 5.13355 17.1086 4.08046 15.2883ZM3.18546 13.1054C3.01082 12.4068 2.90168 11.6756 2.90168 10.9224C2.90168 10.1693 3.01082 9.43806 3.18546 8.73952H6.8746C6.78729 9.45988 6.7218 10.1803 6.7218 10.9224C6.7218 11.6646 6.78729 12.385 6.8746 13.1054M11.6334 2.22348C12.5393 3.53324 13.2706 4.9958 13.7181 6.55659H9.54869C9.99619 4.9958 10.7275 3.53324 11.6334 2.22348ZM19.1863 6.55659H15.9665C15.6249 5.20477 15.1191 3.89986 14.4603 2.67098C16.4686 3.3586 18.1385 4.74476 19.1863 6.55659ZM11.6334 0.0078125C5.59759 0.0078125 0.71875 4.9194 0.71875 10.9224C0.71875 13.8172 1.86868 16.5934 3.91557 18.6403C4.92909 19.6538 6.13231 20.4577 7.45653 21.0063C8.78076 21.5548 10.2001 21.8371 11.6334 21.8371C14.5281 21.8371 17.3043 20.6871 19.3512 18.6403C21.3981 16.5934 22.548 13.8172 22.548 10.9224C22.548 9.48912 22.2657 8.06982 21.7172 6.7456C21.1687 5.42137 20.3647 4.21815 19.3512 3.20463C18.3377 2.19112 17.1345 1.38715 15.8102 0.83864C14.486 0.290128 13.0667 0.0078125 11.6334 0.0078125Z" fill="black"/>
</svg>
