<svg width="15" height="15" viewBox="0 0 15 15" fill="none" xmlns="http://www.w3.org/2000/svg">
<path d="M7.5 12.75C6.87778 12.75 6.28958 12.6479 5.73542 12.4438C5.18125 12.2396 4.68056 11.9576 4.23333 11.5979L3.48958 12.3417C3.37292 12.4583 3.23681 12.5141 3.08125 12.5091C2.92569 12.5044 2.78958 12.4438 2.67292 12.3271C2.55625 12.2104 2.49792 12.0718 2.49792 11.9112C2.49792 11.7509 2.55625 11.6125 2.67292 11.4958L3.40208 10.7667C3.04236 10.3194 2.76042 9.81622 2.55625 9.257C2.35208 8.69817 2.25 8.1125 2.25 7.5C2.25 6.04167 2.76294 4.80208 3.78883 3.78125C4.81433 2.76042 6.05139 2.25 7.5 2.25H11.5833C11.9042 2.25 12.1789 2.36414 12.4076 2.59242C12.6359 2.82108 12.75 3.09583 12.75 3.41667V7.5C12.75 8.94861 12.2396 10.1859 11.2188 11.2118C10.1979 12.2373 8.95833 12.75 7.5 12.75ZM7.5 11.5833C8.6375 11.5833 9.60233 11.1847 10.3945 10.3875C11.1871 9.59028 11.5833 8.62778 11.5833 7.5V3.41667H7.5C6.37222 3.41667 5.40972 3.81275 4.6125 4.60492C3.81528 5.39747 3.41667 6.3625 3.41667 7.5C3.41667 8.62778 3.81528 9.59028 4.6125 10.3875C5.40972 11.1847 6.37222 11.5833 7.5 11.5833ZM6.72708 10.3438L9.74583 7.64583C9.84306 7.55833 9.87222 7.45372 9.83333 7.332C9.79445 7.21067 9.70695 7.14028 9.57083 7.12083L7.20833 6.8875L8.62292 4.94792C8.66181 4.89931 8.67872 4.84817 8.67367 4.7945C8.669 4.74122 8.64722 4.69028 8.60833 4.64167C8.55972 4.59306 8.50392 4.56875 8.44092 4.56875C8.37753 4.56875 8.32153 4.59306 8.27292 4.64167L5.26875 7.33958C5.17153 7.42708 5.14236 7.5315 5.18125 7.65283C5.22014 7.77456 5.30764 7.84514 5.44375 7.86458L7.80625 8.09792L6.37708 10.0375C6.34792 10.0861 6.33333 10.1373 6.33333 10.1909C6.33333 10.2442 6.35764 10.2951 6.40625 10.3438C6.45486 10.3924 6.50833 10.4167 6.56667 10.4167C6.625 10.4167 6.67847 10.3924 6.72708 10.3438Z" fill="#E8356D"/>
</svg>
