<svg width="737" height="953" viewBox="0 0 737 953" fill="none" xmlns="http://www.w3.org/2000/svg">
<g clip-path="url(#clip0_1664_20885)">
<g clip-path="url(#clip1_1664_20885)">
<path d="M796.238 256.563C790.92 256.789 785.715 256.789 780.397 257.581C736.948 264.483 706.737 288.245 689.651 328.752C684.107 341.764 681.618 355.569 681.731 369.826C681.731 372.994 682.184 373.673 685.465 374.352C692.141 375.709 698.59 377.859 704.927 380.348C710.245 382.498 710.81 383.63 710.358 376.501C709.113 358.397 712.96 341.312 722.691 325.923C739.664 299.22 764.104 285.529 795.673 284.963C832.899 284.284 856.547 251.018 851.682 219.337C845.119 177.019 795.899 156.425 761.728 181.997C746.113 193.765 738.645 209.719 738.872 229.181C738.645 231.444 738.419 233.707 738.193 235.97C737.853 239.477 738.193 239.817 741.361 238.572C746.679 236.422 751.997 234.499 757.428 233.028C759.804 232.349 762.18 231.783 764.556 231.33C766.254 230.991 767.159 229.973 767.159 228.162C767.159 227.37 767.159 226.691 767.159 225.899C768.29 210.285 781.416 198.63 797.03 199.422C812.193 200.214 824.299 213.226 823.96 228.502C823.621 243.551 811.4 255.884 796.352 256.336L796.238 256.563Z" fill="#3D0072"/>
<path d="M828.454 306.814C817.479 311.792 805.711 313.376 793.604 313.716C758.754 314.508 731.938 347.095 739.858 383.416C744.95 406.838 764.638 424.489 789.191 427.318C811.708 429.921 834.225 418.492 845.427 397.447C850.405 388.168 852.442 378.324 852.555 367.801C852.555 365.538 852.555 363.275 852.555 361.012C852.555 359.428 851.537 358.976 850.292 359.542C842.372 362.823 834.338 365.425 825.965 367.236C824.381 367.575 823.702 368.367 823.702 369.951C823.702 370.856 823.702 371.875 823.702 372.78C822.344 386.132 812.84 396.428 799.714 398.804C787.834 400.954 775.161 394.278 769.616 382.963C760.678 364.633 773.69 342.795 794.057 342.23C802.769 342.003 811.482 341.551 819.968 339.288C865.907 327.407 894.873 298.328 906.414 252.163C908.338 244.468 909.13 236.435 909.017 228.401C909.017 226.251 908.677 224.893 906.188 224.328C898.041 222.517 890.121 219.915 882.427 216.747C880.39 215.841 879.711 216.52 880.05 218.897C880.956 225.572 880.843 232.135 879.824 238.811C874.959 270.832 857.76 293.462 828.341 306.814H828.454Z" fill="#3D0072"/>
<path d="M689.223 44.2899C683.905 57.0758 681.755 70.5406 681.642 84.3448C681.416 107.767 660.37 116.706 646.566 113.198C631.178 109.238 619.976 92.9442 626.538 75.406C630.838 63.8648 639.664 57.6415 652.11 57.0758C655.731 56.8495 655.844 56.8495 656.636 53.455C658.333 45.9871 660.596 38.8587 663.425 31.7303C663.765 31.0514 663.991 30.2593 664.217 29.5804C664.67 28.4489 664.217 27.77 662.973 27.77C656.523 28.2226 650.074 28.1095 643.737 29.1278C611.15 34.6721 590.217 65.562 597.572 97.8097C602.664 120.1 616.694 134.696 638.759 140.467C660.936 146.238 679.945 139.901 695.447 123.155C705.291 112.519 709.703 99.5069 709.93 85.1369C709.93 79.0268 710.495 73.0299 711.853 67.0329C721.584 23.0177 763.789 -7.19324 810.18 1.29299C841.523 7.06362 863.021 25.507 875.015 55.0391C878.862 64.6568 880.672 74.7271 880.559 85.1369C880.559 108.785 894.816 130.284 917.559 138.883C924.914 141.712 932.608 142.843 940.415 142.617C942.339 142.617 944.149 142.843 946.073 142.956C948.902 142.956 949.241 142.617 948.223 140.128C945.168 132.547 942.678 124.739 940.981 116.819C940.642 115.008 939.85 114.103 937.926 114.216C934.871 114.216 931.929 113.651 928.987 112.745C917.333 109.125 909.526 98.9411 909.073 86.3815C908.847 79.14 908.394 72.0115 907.036 64.8831C896.513 6.27159 841.183 -36.9516 778.272 -27.1076C735.275 -20.4317 705.63 4.34803 688.997 44.5162L689.223 44.2899Z" fill="#22C55E"/>
<path d="M639.502 -112.62C611.102 -105.831 596.053 -79.693 596.392 -58.4209C596.505 -51.7451 595.713 -45.1824 594.242 -38.6197C585.417 0.190613 552.943 24.8572 519.45 27.7991C513.34 28.3649 507.343 28.478 501.346 27.686C499.989 27.5728 499.083 27.9123 499.762 29.6095C503.044 37.7563 505.759 46.0162 507.683 54.5024C508.135 56.3128 509.154 57.1049 510.851 56.8786C514.246 56.6523 517.64 56.5391 521.035 56.1997C551.698 53.3709 577.27 40.1324 597.297 16.8236C615.628 -4.44853 624.453 -29.4546 624.793 -57.4026C624.906 -73.0172 637.579 -85.5768 652.401 -85.8031C664.169 -86.0294 674.805 -79.3536 679.444 -68.4912C684.536 -56.4974 680.462 -44.1641 673.108 -36.9225C667.676 -31.6044 661.001 -29.1151 653.646 -28.6625C651.043 -28.5494 650.025 -27.5311 649.459 -25.1549C647.762 -17.5739 645.386 -10.106 642.444 -2.97758C642.218 -2.41183 642.105 -1.84608 641.991 -1.39349C641.765 -0.488289 641.991 0.0774612 643.01 0.0774612C645.047 0.0774612 647.196 0.0774612 649.233 0.0774612C653.08 0.0774612 656.814 -0.488289 660.548 -0.940887C692.909 -5.01427 713.389 -35.3384 709.655 -64.6441C705.695 -95.534 675.597 -121.445 639.502 -112.733V-112.62Z" fill="#FCB40C"/>
<path d="M581.362 281.133C561.221 265.178 538.138 257.145 512.567 256.579C508.267 256.579 508.154 256.579 507.249 260.539C505.551 267.781 503.401 274.796 500.573 281.698C500.233 282.377 500.007 283.169 499.894 283.848C499.668 284.753 499.894 285.432 500.912 285.432C502.383 285.432 503.967 285.432 505.438 285.319C514.151 284.753 522.863 285.432 531.349 287.582C570.273 297.313 593.242 330.353 595.845 362.261C596.297 368.258 596.184 374.481 597.202 380.478C602.068 408.086 625.15 427.548 653.098 427.888C657.511 427.888 661.811 428.114 666.111 428.906C695.643 433.998 717.141 450.065 730.38 476.995C736.15 488.536 738.526 500.982 738.64 513.881C738.64 518.86 739.205 523.725 740.563 528.478C747.578 553.371 769.303 570.117 795.101 570.456C801.777 570.456 808.34 571.248 814.789 572.719C848.734 580.526 877.927 609.493 880.529 650.566C882.34 677.948 872.722 701.483 852.242 719.701C830.743 738.823 805.398 745.499 777.224 739.502C737.395 731.129 710.126 694.921 710.126 656.337C710.126 624.202 685.233 599.422 653.098 598.97C628.319 598.63 607.273 589.578 590.414 571.361C576.044 555.86 568.463 537.416 567.897 516.144C567.897 512.976 567.444 509.695 567.218 506.527C564.615 481.407 543.683 457.985 513.811 456.401C481.337 454.817 454.747 479.823 453.955 512.41C453.276 540.132 473.417 564.572 500.686 569.438C507.135 570.569 513.585 569.89 519.921 570.796C522.411 571.135 522.75 570.796 521.845 568.419C519.016 561.178 516.527 553.823 514.716 546.242C513.698 542.056 513.698 542.056 509.172 541.716C494.35 540.471 483.487 529.496 482.582 514.673C481.903 503.132 488.239 492.496 498.762 487.517C509.512 482.426 521.845 484.462 530.331 492.609C535.989 498.04 538.817 504.603 539.27 512.297C539.723 518.407 539.496 524.404 540.628 530.514C548.322 573.172 571.97 602.93 611.799 619.563C624.698 624.994 638.276 627.37 652.306 627.37C660.679 627.37 667.808 630.199 673.692 636.309C679.236 642.08 681.725 649.095 681.725 657.016C681.725 663.352 682.178 669.575 683.309 675.685C692.927 730.11 739.884 769.713 795.554 770.052C800.193 769.939 805.511 769.713 810.829 768.921C839.23 764.847 862.991 752.061 881.548 730.337C902.707 705.444 911.872 676.364 908.364 643.664C905.196 614.245 892.41 589.692 870.233 570.117C849.187 551.56 824.52 542.056 796.459 541.829C778.355 541.829 766.361 527.346 766.814 512.524C767.04 506.074 766.022 499.624 765.003 493.288C757.762 450.97 726.306 415.781 685.233 403.787C674.823 400.732 664.187 399.261 653.325 399.148C636.918 398.921 625.264 387.041 624.811 370.634C624.698 365.542 624.358 360.337 623.68 355.246C619.154 325.035 605.236 300.029 581.362 280.906V281.133Z" fill="#FCB40C"/>
<path d="M662.471 313.026C656.248 313.818 650.024 313.705 643.801 313.026C641.878 312.799 641.312 313.365 642.104 315.289C645.272 323.209 647.875 331.356 649.798 339.729C650.251 341.539 651.156 342.218 652.966 342.218C655.456 342.218 656.135 341.766 656.7 338.937C658.284 332.035 660.321 325.359 662.81 318.796C663.263 317.552 663.829 316.307 664.281 315.062C664.847 313.252 664.394 312.686 662.358 312.912L662.471 313.026Z" fill="#3D0072"/>
<path d="M707.731 217.089C700.715 219.918 693.587 222.294 686.232 224.105C682.159 225.01 682.272 225.123 681.706 229.649C681.48 231.346 681.253 233.044 680.801 234.741C675.935 255.787 649.911 263.82 634.07 249.111C628.186 243.68 625.018 237.117 624.905 228.97C624.905 225.349 624.792 225.349 621.284 224.444C617.098 223.313 612.911 222.294 608.725 220.937C604.991 219.692 601.257 218.108 597.523 216.863C596.618 216.524 595.486 216.524 595.712 217.995C596.731 225.462 596.052 233.157 597.636 240.625C602.388 262.123 620.379 282.829 649.006 284.979C675.03 287.016 697.208 271.401 706.033 249.111C709.088 241.19 710.333 233.044 710.22 223.765C710.22 222.747 710.446 220.823 710.446 218.9C710.446 216.637 709.994 216.184 707.731 217.089Z" fill="#3D0072"/>
<path d="M84.0348 342.245C94.6709 342.019 105.194 340.661 115.377 337.719C165.503 323.349 196.845 277.863 197.637 231.924C197.637 229.096 197.863 226.267 198.316 223.438C200.239 212.35 206.576 204.655 217.099 201.148C227.848 197.527 237.692 199.677 245.952 207.597C251.27 212.689 254.099 218.912 254.551 226.267C254.891 230.906 255.004 230.906 259.077 231.924C266.093 233.622 272.881 235.885 279.557 238.487C283.744 240.184 283.857 240.071 283.518 235.432C283.404 233.509 283.178 231.698 283.065 229.775C282.952 227.285 282.952 224.796 282.612 222.42C282.273 219.817 281.933 217.102 281.255 214.613C274.692 187.796 249.912 169.24 221.625 171.389C194.356 173.426 172.405 194.925 169.576 221.628C169.01 227.285 169.35 233.056 168.558 238.713C163.692 270.622 146.72 293.591 117.301 306.943C105.873 312.148 93.7657 313.619 81.3192 314.071C46.4691 315.316 21.1236 347.903 27.9126 382.187C33.1175 408.438 56.2 427.673 82.9033 428.013C109.607 428.352 133.142 409.909 139.252 383.884C140.949 376.53 140.157 369.175 141.175 361.82C141.515 359.331 140.949 358.992 138.686 359.897C131.331 362.952 123.75 365.328 116.056 367.251C112.209 368.27 112.096 368.27 112.096 372.004C111.983 389.655 94.2182 403.686 75.888 398.368C60.6128 393.842 53.3713 378.227 55.8606 366.12C58.6893 352.089 69.3253 342.811 83.8085 342.472L84.0348 342.245Z" fill="#22C55E"/>
<path d="M390.992 746.289C382.958 742.555 374.359 741.311 366.325 741.65C363.61 741.537 361.686 741.424 359.876 741.311C357.047 741.311 356.708 741.537 357.839 744.026C360.441 750.589 362.591 757.265 364.402 764.054C364.741 765.525 365.081 766.996 365.42 768.466C365.646 769.485 366.325 770.051 367.344 770.164C368.475 770.164 369.607 770.164 370.738 770.164C382.506 771.182 392.123 779.103 395.744 790.418C396.649 793.133 396.762 795.962 396.989 798.791C397.102 800.827 398.007 801.732 400.044 802.185C407.964 803.995 415.772 806.485 423.24 809.653C425.503 810.558 425.955 810.219 425.842 807.956C425.729 803.995 425.503 800.035 425.276 795.962C423.466 772.653 412.038 756.02 390.879 746.289H390.992Z" fill="#3D0072"/>
<path d="M514.483 830.361C513.918 828.325 513.125 826.854 510.636 827.193C510.07 827.193 509.505 827.193 508.939 827.193C494.003 826.401 483.028 813.502 482.575 801.282C482.575 800.15 482.349 799.019 482.349 797.887C482.349 796.53 481.557 795.738 480.312 795.511C471.826 793.701 463.566 790.985 455.419 787.591C454.061 787.025 453.269 787.591 453.383 789.062C453.609 793.588 453.948 798.114 454.175 802.753C455.08 825.496 472.279 849.144 499.208 854.689C506.11 856.16 513.239 855.028 519.914 856.499C522.291 856.612 522.63 856.159 521.725 853.783C520.48 850.163 519.009 846.655 517.878 843.034C516.52 838.848 515.502 834.661 514.37 830.474L514.483 830.361Z" fill="#22C55E"/>
<path d="M281.385 644.903C273.465 648.071 265.431 650.787 257.171 652.597C255.248 653.05 254.908 654.295 254.908 655.879C254.908 657.463 255.022 658.821 257.058 659.273C265.544 661.197 273.804 663.799 281.838 667.194C283.083 667.759 284.101 667.42 283.988 665.723C283.762 662.555 283.535 659.273 283.309 656.105C283.535 652.937 283.761 649.656 283.875 646.487C283.875 644.564 283.422 644.111 281.499 644.903H281.385Z" fill="#3D0072"/>
<path d="M751.652 868.022C767.606 858.178 785.144 854.331 803.814 856.254C806.982 856.594 807.321 856.254 806.19 853.313C803.248 845.732 800.532 838.037 798.948 830.004C798.495 828.08 797.477 827.175 795.44 827.175C789.783 827.062 784.012 827.628 778.468 828.533C732.303 835.774 696.208 869.04 684.893 914.413C682.63 923.239 681.612 932.291 681.838 941.456C681.838 943.153 682.178 944.285 684.101 944.737C692.361 946.661 700.508 949.263 708.428 952.432C709.786 952.997 710.691 952.432 710.578 950.961C710.578 948.132 710.352 945.303 710.239 942.474C710.805 910.227 724.269 884.994 751.765 868.022H751.652Z" fill="#3D0072"/>
<path d="M312.343 587.973C330.108 567.493 339.273 543.279 340.065 516.123C340.065 512.502 340.291 508.881 341.31 505.373C344.817 493.493 355.34 485.233 367.787 484.893C375.594 484.667 383.288 483.988 390.869 482.63C436.242 474.031 473.355 435.786 480.71 390.074C481.955 382.719 481.955 375.365 482.634 368.01C483.765 354.771 494.062 344.135 506.961 342.551C520.652 340.854 533.212 348.774 537.624 361.673C538.643 364.728 538.982 368.01 539.209 371.178C539.209 372.875 540.114 373.894 541.924 374.233C547.129 375.365 552.221 376.722 557.199 378.533C560.028 379.551 562.857 380.683 565.685 381.701C567.609 382.38 568.175 382.04 568.062 380.117C567.835 373.441 567.835 366.765 566.704 360.202C561.952 333.952 539.095 314.377 512.392 313.698C485.236 313.019 461.475 331.349 455.365 357.6C453.781 364.163 454.007 370.839 453.441 377.401C451.291 401.955 440.768 422.095 421.646 437.597C406.031 450.27 388.041 456.266 368.013 456.38C337.463 456.606 313.588 480.707 311.778 509.107C311.438 514.652 311.438 520.196 310.646 525.627C304.197 568.624 267.876 599.514 224.766 599.061C222.163 598.948 219.448 598.722 216.845 598.609C214.695 598.609 214.356 598.835 215.148 600.759C218.203 608.566 221.032 616.373 222.616 624.633C223.068 626.896 224.426 627.575 226.689 627.575C231.442 627.462 236.081 627.236 240.833 626.557C269.46 622.71 293.334 609.81 312.23 587.973H312.343Z" fill="#3D0072"/>
<path d="M598.563 952.349C606.257 949.067 614.177 946.691 622.211 944.768C623.908 944.315 624.813 943.636 624.926 941.712C624.926 939.789 624.474 938.431 622.437 937.978C613.951 936.168 605.691 933.453 597.657 930.058C596.186 929.379 595.621 930.284 595.734 931.642C596.3 937.639 596.978 943.749 595.734 949.067C595.507 953.027 595.734 953.367 598.563 952.235V952.349Z" fill="#3D0072"/>
<path d="M141.502 220.496C141.841 216.196 141.728 215.97 137.881 217.554C130.866 220.382 123.624 222.645 116.269 224.456C112.535 225.361 112.535 225.474 112.422 229.321C112.196 237.581 108.801 244.257 102.691 249.688C97.4865 254.214 91.3763 256.477 84.5874 256.59C82.777 256.59 81.1929 256.93 80.7403 259.08C79.043 267.453 76.3274 275.486 73.0461 283.407C72.4804 284.878 72.933 285.557 74.5171 285.557C78.1378 285.444 81.6455 285.33 85.2663 285.217C107.217 284.086 123.737 274.015 134.486 254.78C139.239 246.181 141.388 236.789 140.936 227.624C141.049 225.927 141.162 225.022 141.275 224.116C141.275 222.985 141.502 221.853 141.615 220.722L141.502 220.496Z" fill="#3D0072"/>
<path d="M657.057 908.427C658.302 904.014 659.433 899.601 660.904 895.301C661.923 892.246 663.167 889.304 664.299 886.249C664.978 884.326 664.638 883.986 662.601 883.986C661.696 883.986 660.678 883.986 659.773 884.099C654.228 884.439 648.797 884.552 643.253 883.873C594.033 877.424 566.764 835.445 568.348 798.445C568.348 795.39 568.348 792.335 568.348 789.28C568.348 787.357 567.895 787.017 565.858 787.696C558.051 790.751 550.244 793.467 542.097 795.164C539.947 795.616 539.381 796.974 539.495 798.898C539.721 803.084 539.495 807.271 540.173 811.457C545.265 849.476 564.161 878.555 597.201 898.017C613.834 907.748 632.051 912.613 651.4 912.84C656.039 912.84 655.926 912.839 657.17 908.54L657.057 908.427Z" fill="#3D0072"/>
<path d="M373.586 256.001C360.121 258.716 346.43 250.569 341.677 237.218C340.546 234.163 340.32 230.881 340.093 227.713C339.98 226.016 339.414 224.998 337.491 224.545C329.118 222.622 321.084 220.019 313.164 216.738C311.806 216.172 311.014 216.625 311.127 218.209C311.58 224.885 311.466 231.56 312.598 238.123C318.708 271.05 349.372 288.814 377.32 284.288C406.625 279.536 427.784 252.606 425.069 222.622C422.466 193.995 397.913 170.799 368.946 171.025C363.968 171.025 359.102 170.573 354.237 169.668C308.185 161.634 277.182 119.203 283.971 72.6982C290.421 28.5699 330.136 -5.1487 378.677 0.28248C412.849 4.12957 441.815 29.4751 450.754 62.8542C453.13 71.5668 453.582 80.5056 453.922 89.3313C454.827 110.603 470.329 133.573 495.9 140.362C503.708 142.398 511.628 142.285 519.549 142.625C522.038 142.738 522.264 142.398 521.359 140.022C518.417 132.441 515.702 124.747 514.004 116.713C513.552 114.45 512.194 113.772 509.931 113.772C506.31 113.772 502.689 112.98 499.408 111.509C488.432 106.417 482.436 97.8175 481.983 85.7105C481.643 78.1294 481.304 70.5484 479.72 63.0806C467.273 2.77179 414.772 -29.8153 368.268 -28.4575C364.873 -28.4575 361.479 -28.6838 358.084 -28.4575C354.463 -28.2312 350.956 -27.7786 347.335 -27.0997C286.121 -15.4453 245.274 42.3741 255.91 103.814C263.265 146.246 287.818 175.551 327.647 191.732C340.998 197.163 354.916 198.973 369.286 199.426C383.882 199.765 394.971 210.967 396.329 225.903C397.573 240.047 387.616 252.832 373.02 255.774L373.586 256.001Z" fill="#3D0072"/>
<path d="M80.9839 197.496C81.3234 199.08 82.4549 199.42 84.039 199.42C87.8861 199.42 91.62 199.08 95.3539 198.741C125.791 195.573 151.137 182.334 170.938 159.138C188.702 138.319 197.641 113.992 197.981 86.4963C197.981 82.7623 197.981 82.4229 194.134 81.5177C188.589 80.1599 183.158 78.5758 177.84 76.6522C175.238 75.747 172.748 74.163 169.806 74.0498C168.335 76.8785 169.806 79.9336 169.354 82.8755C169.354 83.4412 169.354 84.007 169.354 85.5911C169.58 90.4565 169.128 96.3403 167.883 102.111C159.623 143.184 123.189 172.603 79.8525 170.906C77.9289 170.906 76.1185 170.453 74.195 170.34C72.9503 170.34 72.3846 170.906 72.8372 172.037C76.1185 180.297 78.9473 188.784 80.8708 197.496H80.9839Z" fill="#3D0072"/>
<path d="M234.538 133.012C232.501 127.694 231.144 122.15 229.786 116.719C229.446 115.134 228.767 114.003 226.844 114.003C224.128 114.003 223.449 114.229 222.884 116.832C221.752 122.037 220.168 127.015 218.584 132.107C217.566 135.501 215.642 138.67 215.189 142.29C218.81 143.761 222.544 141.951 224.92 142.29C229.446 142.517 232.728 142.743 235.896 142.743C237.819 142.743 238.159 142.29 237.48 140.367C236.575 137.877 235.67 135.388 234.651 132.899L234.538 133.012Z" fill="#3D0072"/>
<path d="M27.2328 85.1391C27.1196 117.274 52.352 142.506 84.1471 142.393C120.468 142.28 141.74 111.729 140.722 85.5917C141.514 54.7018 115.489 28.6774 84.4865 28.338C57.2174 27.9985 27.3459 49.3838 27.1196 85.2522L27.2328 85.1391ZM112.321 85.4785C112.321 101.093 99.7617 113.992 84.2602 113.879C69.0981 113.766 56.0859 102.79 55.5202 85.3654C55.0676 69.6376 68.1929 57.078 84.0339 56.8517C99.1959 56.5122 113.113 70.2033 112.321 85.4785Z" fill="#22C55E"/>
<path d="M656.486 686.773C656.033 684.963 654.789 684.51 653.092 684.51C651.394 684.51 650.263 684.963 649.81 686.886C649.018 690.168 648.226 693.562 647.208 696.73C645.624 701.596 643.813 706.348 642.116 711.214C641.324 713.363 641.777 713.929 644.153 713.59C647.887 713.024 651.734 713.25 655.468 713.137C657.957 712.911 660.333 713.25 662.822 713.703C664.293 713.929 664.972 713.137 664.407 711.666C662.936 707.706 661.352 703.859 660.107 699.899C658.749 695.599 657.731 691.073 656.486 686.773Z" fill="#3D0072"/>
<path d="M-55.3681 969.628C-70.417 970.647 -82.6371 961.595 -85.9185 947.225C-86.3711 944.962 -86.7105 942.699 -86.7105 940.436C-86.7105 939.078 -87.3894 938.286 -88.6341 938.059C-97.1203 936.136 -105.38 933.42 -113.527 930.139C-115.111 929.46 -115.564 930.478 -115.451 931.836C-115.451 935.118 -115.111 938.286 -115.111 941.567C-114.658 976.304 -85.9185 998.708 -57.6311 998.481C-22.3284 998.142 7.09053 964.084 -3.43239 925.952C-10.2214 901.512 -32.2856 884.54 -57.6311 884.313C-62.9491 884.313 -68.2671 883.974 -73.472 882.956C-92.4811 879.222 -108.662 870.396 -121.561 855.913C-136.61 839.053 -143.625 819.026 -143.512 795.491C-143.398 794.133 -143.059 791.87 -142.946 789.607C-142.72 787.231 -143.285 786.778 -145.435 787.684C-153.129 790.739 -161.05 793.454 -169.197 795.265C-171.346 795.717 -171.799 796.962 -171.912 798.885C-172.138 804.769 -171.46 810.653 -170.554 816.424C-166.368 841.09 -155.732 862.475 -137.741 880.014C-116.129 901.06 -90.2182 911.922 -60.1204 912.601C-57.4048 912.601 -54.8023 912.827 -52.1999 913.393C-38.1693 916.448 -28.8911 928.781 -29.7962 943.377C-30.5883 956.955 -42.0164 968.61 -55.3681 969.515V969.628Z" fill="#3D0072"/>
<path d="M-57.8507 541.817C-62.603 541.93 -67.2422 542.157 -71.9944 542.722C-99.8293 546.343 -123.364 558.45 -142.147 579.043C-161.609 600.429 -171.34 625.774 -171.792 654.741C-171.792 659.153 -172.358 663.453 -174.282 667.526C-179.034 677.597 -187.068 683.254 -198.156 684.386C-203.022 684.838 -203.022 684.725 -204.266 689.704C-205.737 695.588 -207.548 701.358 -209.698 707.129C-210.376 709.052 -212.413 711.202 -211.395 712.899C-210.15 715.049 -207.661 712.899 -205.624 713.126C-203.135 713.239 -200.759 713.126 -198.269 713.126C-192.499 713.126 -187.068 711.881 -181.636 710.071C-161.496 703.282 -143.279 682.915 -143.392 655.533C-143.392 640.144 -139.545 625.774 -131.511 612.762C-114.765 585.606 -90.3247 571.576 -58.5296 570.784C-42.6887 570.331 -28.9976 565.126 -17.6826 553.698C7.4366 528.352 3.3632 486.261 -26.282 466.346C-36.6918 459.331 -48.1199 456.163 -61.1321 456.616C-63.0556 456.502 -65.5449 456.276 -68.0342 456.05C-69.392 456.05 -69.7315 456.729 -69.2789 457.86C-65.9975 466.12 -63.1688 474.606 -61.2452 483.319C-61.0189 484.337 -60.34 484.903 -59.2085 485.016C-58.3033 485.016 -57.285 485.016 -56.3798 485.129C-40.7652 486.374 -29.337 498.82 -29.6765 514.322C-30.0159 529.71 -42.1229 541.704 -57.8507 542.157V541.817Z" fill="#3D0072"/>
<path d="M381.402 885.689C374.273 883.992 367.145 884.332 359.903 883.879C356.961 883.653 356.622 884.105 357.866 887.16C360.695 894.176 363.071 901.417 364.769 908.772C365.561 912.28 365.674 912.28 369.634 912.732C386.606 914.203 396.337 926.763 396.903 939.775C396.903 940.341 397.016 940.906 397.016 941.472C397.016 943.509 397.921 944.414 399.958 944.867C406.181 946.224 412.405 948.261 418.401 950.411C420.664 951.203 423.493 953.692 425.19 952.448C427.227 950.977 425.417 947.582 425.53 944.98C425.53 943.622 425.53 942.377 425.53 941.02C424.964 912.053 404.823 891.234 381.402 885.803V885.689Z" fill="#3D0072"/>
<path d="M169.823 804.776C172.991 833.855 197.77 855.806 225.945 855.693C229.339 855.693 232.734 856.032 236.128 856.372C271.997 860.219 302.886 887.714 310.128 925.054C311.486 932.408 311.373 939.763 312.052 947.118C314.993 977.555 341.357 998.262 367.382 998.148C377.678 998.148 387.862 999.619 397.48 1003.47C430.746 1016.82 449.642 1041.26 453.489 1077.13C454.054 1082.78 453.828 1088.55 454.846 1094.1C460.617 1124.42 486.189 1139.81 507.8 1140.83C538.238 1142.3 564.375 1119.33 567.204 1090.48C567.77 1084.48 567.657 1078.26 568.449 1072.26C575.69 1022.93 619.705 993.962 661.684 998.714C684.427 1001.32 703.323 1011.05 718.032 1028.59C733.421 1046.8 740.097 1068.07 737.834 1092.06C737.494 1095.68 737.721 1096.02 740.889 1094.67C748.13 1091.72 755.485 1089.35 763.066 1087.54C766.687 1086.63 766.8 1086.52 766.8 1083.12C766.8 1074.52 765.668 1066.04 763.745 1057.78C749.714 997.583 690.424 959.564 630.115 972.124C575.238 983.439 540.161 1031.41 539.482 1080.52C539.482 1083.12 539.143 1085.84 538.803 1088.44C536.88 1103.83 520.473 1117.29 501.125 1110.73C491.054 1107.34 482.568 1098.06 482.342 1083.58C482.229 1077.35 481.776 1071.02 480.758 1064.91C476.232 1038.88 464.238 1016.93 444.776 999.28C423.164 979.705 397.593 970.314 368.626 969.748C357.651 969.522 349.391 964.656 343.847 955.265C341.131 950.739 340.339 945.647 340.113 940.555C339.886 934.898 339.66 929.24 338.755 923.583C332.079 880.812 301.302 845.057 260.003 832.497C248.688 828.99 237.147 827.519 225.379 827.179C210.104 826.84 198.223 814.393 197.997 799.231C197.77 783.843 209.877 770.944 225.039 770.265C240.202 769.586 253.101 780.788 254.572 795.95C254.572 796.742 254.798 797.421 254.798 798.213C254.685 800.702 255.703 801.834 258.192 802.4C266 804.21 273.581 806.586 280.935 809.641C283.538 810.773 283.99 810.433 283.764 807.718C283.538 803.305 283.198 799.005 282.972 794.592C281.501 766.418 257.287 741.638 226.397 741.751C225.04 741.751 223.682 741.751 222.437 741.751C187.134 744.806 166.654 775.809 169.823 804.776Z" fill="#3D0072"/>
<path d="M217.026 713.585C223.815 712.793 230.604 712.906 237.393 713.811C273.828 718.337 303.699 746.738 310.375 783.059C311.733 790.187 311.506 797.429 312.185 804.557C314.901 832.732 338.889 855.135 367.063 855.588C371.023 855.588 374.983 855.927 378.944 856.38C420.47 861.245 450.68 895.53 453.622 934C454.188 940.789 453.962 947.692 455.546 954.367C462.222 982.655 489.83 1003.13 521.625 997.251C551.949 991.594 571.298 962.854 567.338 934.114C565.414 919.744 559.191 907.75 548.215 898.245C536.787 888.288 523.436 883.988 508.5 884.215C506.463 884.101 504.313 883.875 502.277 883.875C499.448 883.875 499.108 884.215 500.127 886.704C503.069 894.059 505.671 901.64 507.255 909.447C507.821 912.049 509.066 912.728 511.555 912.728C513.818 912.728 516.081 913.181 518.231 913.747C533.28 917.594 542.445 933.661 538.258 948.936C534.072 964.098 518.004 973.037 502.956 968.737C489.604 964.89 482.815 952.783 482.475 943.392C482.249 936.377 481.91 929.361 480.665 922.459C473.65 880.028 442.76 844.612 401.687 832.279C390.937 828.998 379.962 827.414 368.647 827.187C356.54 826.961 347.827 821.303 342.509 810.328C340.586 806.254 340.133 801.955 339.907 797.542C339.681 791.998 339.454 786.567 338.549 781.135C331.194 735.989 299.513 700.573 255.61 688.579C246.219 685.977 236.715 684.732 226.984 684.619C223.589 684.619 223.137 684.732 222.571 687.674C220.76 695.821 218.045 703.741 214.99 711.548C214.311 713.359 214.763 713.924 216.687 713.698L217.026 713.585Z" fill="#22C55E"/>
<path d="M40.3767 998.491C50.447 981.518 55.5387 962.962 55.5387 943.161C55.5387 938.635 55.5387 938.635 51.239 937.503C45.5816 936.032 39.9241 934.335 34.3797 932.298C32.1168 931.506 29.288 929.13 27.5908 930.262C25.4409 931.732 27.3645 935.127 27.1382 937.729C27.1382 938.635 27.1382 939.653 27.1382 940.558C27.1382 945.65 26.9119 950.742 26.0067 955.833C18.4257 999.622 -20.0452 1027.23 -57.2714 1026.67C-60.4396 1026.67 -63.721 1026.44 -66.8892 1026.44C-69.4916 1026.44 -69.8311 1026.78 -68.6996 1029.38C-65.7577 1036.85 -63.2684 1044.32 -61.5711 1052.12C-61.1185 1054.5 -59.8739 1055.18 -57.6109 1055.18C-52.0666 1055.18 -46.6354 1054.95 -41.2042 1054.05C-5.33577 1048.16 21.9333 1029.49 40.4898 998.378L40.3767 998.491Z" fill="#3D0072"/>
<path d="M222.63 570.328C249.107 571.799 272.529 555.732 280.676 530.726C283.505 521.9 283.052 512.735 283.844 503.683C283.957 501.986 283.279 501.533 281.242 502.438C274.566 505.154 267.777 507.417 260.762 509.114C255.217 510.472 255.331 510.472 254.652 516.469C253.294 528.123 246.844 536.157 235.982 540.117C225.346 543.964 215.389 541.814 207.016 533.894C198.529 525.86 196.153 515.79 199.435 504.701C202.942 493.047 213.465 485.126 225.799 484.787C233.153 484.674 240.508 483.995 247.863 482.637C300.93 472.68 340.532 425.61 340.419 370.506C340.08 365.527 340.08 360.549 339.401 355.683C335.441 328.188 323.56 304.766 302.967 285.983C281.694 266.748 256.575 257.017 228.062 256.338C223.875 256.338 223.875 256.338 222.857 260.524C221.159 267.766 219.01 274.781 216.068 281.683C215.728 282.362 215.502 283.154 215.276 283.833C214.936 284.738 215.389 285.304 216.294 285.304C218.331 285.304 220.481 285.191 222.517 285.078C229.985 284.625 237.34 285.304 244.581 286.888C285.428 295.94 310.434 331.13 311.679 365.98C312.811 395.625 301.835 419.726 278.753 438.169C263.364 450.389 245.6 456.047 226.025 456.16C191.175 456.5 163.906 488.068 170.695 524.276C175.447 549.395 197.511 568.631 222.744 570.102L222.63 570.328Z" fill="#22C55E"/>
<path d="M403.328 306.115C389.524 312.678 374.814 314.827 359.652 313.13C357.163 312.904 356.71 313.243 357.615 315.393C360.671 323.201 363.386 331.008 365.083 339.268C365.536 341.418 366.781 342.436 369.044 342.323C373.004 342.097 376.964 341.983 380.924 341.531C401.404 339.268 419.961 332.253 436.254 319.806C465.56 297.629 480.722 267.757 482.42 231.097C482.646 225.439 482.646 225.439 476.988 223.968C475.291 223.516 473.707 223.176 472.01 222.724C466.579 221.253 461.261 219.216 455.943 217.179C453.793 216.274 453.34 216.614 453.453 219.216C453.566 222.271 453.906 225.326 454.132 228.381C453.906 230.531 453.793 232.794 453.566 235.057C450.172 268.323 433.313 291.971 403.328 306.341V306.115Z" fill="#FCB40C"/>
<path d="M710.013 798.428C710.013 764.709 682.631 741.513 653.212 741.626C618.814 741.74 595.732 770.48 596.411 798.314C595.392 827.96 620.285 855.568 653.099 855.681C681.612 855.681 710.126 833.504 710.013 798.428ZM653.099 827.168C636.579 827.168 624.019 812.911 624.811 798.428C624.019 785.302 635.56 770.027 653.438 770.14C667.016 770.14 681.499 780.437 681.499 798.541C681.499 817.663 665.884 827.281 653.099 827.168Z" fill="#22C55E"/>
<path d="M358.32 428.236C360.81 428.122 363.186 427.896 365.562 427.783C366.807 427.783 367.938 427.783 369.07 427.783C396.339 427.33 418.969 408.548 424.4 381.844C425.758 375.168 425.531 368.266 425.984 361.477C426.097 359.101 425.644 358.762 423.381 359.78C415.913 362.948 408.106 365.438 400.186 367.135C397.81 367.701 397.244 368.832 397.131 370.982C396.904 373.584 396.565 376.3 395.886 378.789C392.492 390.33 382.874 398.025 370.54 399.156C365.901 399.609 365.901 399.609 364.77 404.135C363.186 410.811 361.149 417.26 358.547 423.596C358.094 424.615 357.641 425.746 357.302 426.765C357.076 427.67 357.415 428.236 358.433 428.122L358.32 428.236Z" fill="#3D0072"/>
<path d="M567.338 221.626C564.283 193 539.843 171.388 512.008 171.049C508.387 171.049 504.88 170.709 501.259 170.37C465.051 166.523 434.048 138.688 427.033 101.235C425.788 94.22 425.788 87.2048 425.222 80.3026C423.073 51.4495 396.709 24.0673 360.274 28.9327C337.871 31.8746 319.088 49.0733 313.544 70.9112C307.773 93.6543 316.146 117.416 334.703 131.22C345.678 139.367 358.011 142.761 371.929 142.535C373.513 142.535 375.663 142.761 377.7 142.874C380.189 142.874 380.415 142.648 379.51 140.272C376.907 133.596 374.531 126.694 372.834 119.679C372.004 116.284 369.892 114.361 366.498 113.908C365.366 113.795 364.235 113.455 363.103 113.229C349.752 110.627 340.021 98.746 340.134 85.2812C340.134 71.3638 350.43 59.37 363.782 57.2201C377.7 55.0703 390.712 62.7644 395.351 75.7766C396.596 79.3974 396.935 83.1314 397.048 86.9785C397.274 95.0121 397.84 102.933 399.877 110.74C410.626 152.718 436.424 180.666 477.384 194.357C488.247 197.978 499.449 199.336 510.877 199.562C523.549 199.789 534.072 207.596 537.806 219.363C538.711 222.305 539.051 225.247 539.164 228.302C539.164 230 540.069 231.018 541.766 231.471C549.913 233.168 557.834 235.883 565.528 238.938C567.451 239.73 568.017 239.278 567.904 237.354C567.565 232.036 567.565 226.718 566.999 221.4L567.338 221.626Z" fill="#22C55E"/>
<path d="M364.981 545.443C363.283 553.25 360.681 560.831 357.739 568.186C356.721 570.788 356.947 571.128 359.776 570.788C373.354 569.431 386.705 570.788 399.378 576.106C431.739 589.684 450.069 614.012 453.69 649.201C454.256 654.859 454.029 660.629 455.048 666.174C460.932 697.969 491.143 718.449 522.598 711.66C545.115 706.794 560.051 692.651 565.821 670.36C571.705 647.617 565.142 627.929 547.491 612.314C536.516 602.583 523.277 598.623 508.115 598.85C506.531 598.85 504.268 598.623 502.005 598.51C499.402 598.51 499.176 598.623 499.968 600.773C502.91 608.354 505.626 616.048 507.323 624.082C507.889 626.571 509.133 627.59 511.623 627.363C514.112 627.137 516.488 627.816 518.864 628.495C533.8 632.794 542.512 648.522 538.326 663.458C534.139 678.507 518.751 687.333 503.702 683.372C491.369 680.091 483.335 670.021 482.543 656.782C482.204 650.333 482.091 643.883 480.959 637.547C473.265 596.021 450.069 566.941 411.598 550.195C398.247 544.425 384.103 541.709 369.62 541.709C365.999 541.709 365.886 541.709 365.094 545.33L364.981 545.443Z" fill="#3D0072"/>
<path d="M624.809 514.114C624.809 510.719 624.469 507.325 624.13 503.93C621.414 472.701 608.176 446.79 584.527 426.536C564.16 408.998 540.173 400.059 513.243 399.38C507.472 399.267 508.151 398.927 506.907 404.132C505.323 410.808 503.173 417.258 500.683 423.594C500.231 424.612 499.778 425.744 499.439 426.762C499.212 427.667 499.665 428.233 500.57 428.12C503.399 428.007 506.228 427.781 509.056 427.667C516.524 427.441 523.766 428.346 531.008 430.157C565.971 438.53 592.335 468.967 595.616 504.722C596.182 510.38 596.069 516.15 596.861 521.695C600.142 545.343 618.698 564.579 642.007 569.331C648.796 570.689 655.585 570.01 662.374 570.802C664.75 571.141 664.977 570.689 664.071 568.312C661.13 560.731 658.414 553.037 656.717 545.004C656.264 542.854 655.359 541.496 652.87 541.835C652.078 541.835 651.399 541.835 650.607 541.835C636.124 540.478 625.148 528.71 624.809 514.114Z" fill="#22C55E"/>
<path d="M809.111 680.987C797.91 687.21 784.105 685.173 775.167 675.895C770.075 670.69 767.359 664.354 767.133 656.999C767.133 655.075 767.359 653.152 764.757 652.586C756.384 650.776 748.35 648.173 740.43 644.892C738.619 644.213 737.827 644.779 738.053 646.589C738.393 649.984 738.732 653.378 738.732 656.773C739.072 692.188 771.659 719.005 806.283 711.763C830.044 706.785 845.432 691.962 850.864 668.314C856.182 644.892 848.374 625.204 829.591 610.268C819.408 602.234 807.527 598.953 794.628 598.727C768.038 598.274 746.2 587.638 729.341 567.158C716.668 551.657 710.558 533.666 710.219 513.525C709.992 494.516 702.298 478.901 687.023 467.473C676.5 459.553 664.506 456.045 650.249 456.271C649.005 456.271 646.515 455.932 644.026 455.819C641.65 455.706 641.311 456.045 642.329 458.308C645.384 465.663 647.76 473.244 649.684 481.051C650.476 484.446 650.589 484.559 654.21 484.785C668.466 485.351 682.044 496.326 681.931 514.883C681.931 522.577 682.836 530.045 684.42 537.513C693.586 581.415 729.341 616.718 773.13 625.204C781.163 626.788 789.197 627.24 797.344 627.58C810.13 628.146 820.653 637.537 823.368 650.097C825.971 662.543 820.313 674.876 809.338 680.987H809.111Z" fill="#3D0072"/>
<path d="M-25.8047 56.1963C-28.5202 65.4745 -29.5386 75.2054 -29.7649 84.9362C-29.7649 87.0861 -29.1991 88.557 -26.823 89.0096C-18.6762 90.5937 -10.7557 93.4225 -3.06157 96.4775C-0.91173 97.3827 -0.232841 96.9301 -0.68544 94.4408C-2.04324 86.6335 -1.36434 78.8262 -0.00654793 71.132C8.25338 24.5144 48.5347 -1.28376 84.7425 0.187189C87.5713 0.187189 90.4 0.187189 93.2288 0.187189C95.6049 0.187189 95.9444 -0.152266 95.0392 -2.41526C91.9841 -9.99628 89.4948 -17.8036 87.5713 -25.7241C87.1187 -27.6476 86.2135 -28.5528 84.1768 -28.5528C77.1615 -28.7791 70.1462 -28.3265 63.2441 -26.8556C17.4185 -16.6721 -12.453 10.9364 -25.9178 56.1963H-25.8047Z" fill="#3D0072"/>
<path d="M423.294 502.46C415.6 505.628 407.68 508.117 399.646 509.927C397.722 510.38 397.27 511.512 397.27 513.209C397.27 515.132 397.609 516.49 399.872 516.83C402.814 517.395 405.756 518.187 408.585 519.093C413.45 520.677 418.203 522.487 422.955 524.184C425.897 525.203 426.123 525.09 426.01 521.808C426.01 518.979 425.67 516.151 425.557 513.322C425.67 510.267 425.897 507.325 426.01 504.27C426.01 502.007 425.444 501.554 423.294 502.46Z" fill="#3D0072"/>
<path d="M141.65 -66.6938C141.65 -68.7305 141.311 -69.1831 139.387 -68.391C131.467 -65.2229 123.433 -62.5073 115.06 -60.6969C112.91 -60.2443 112.231 -59.1128 112.458 -57.0761C112.91 -51.9843 112.91 -46.7795 113.589 -41.8009C120.152 6.17457 156.02 44.5323 203.43 54.4895C210.898 56.0736 218.366 56.7524 225.947 56.9787C227.757 56.9787 229.228 56.7524 229.681 54.4895C231.491 46.0032 234.32 37.6302 237.601 29.5965C237.601 29.3702 237.714 29.2571 237.714 29.0308C237.94 28.0124 237.375 27.673 236.583 27.673C235.451 27.673 234.32 27.673 233.188 27.8993C226.173 29.0308 219.158 28.2387 212.255 26.9941C185.1 22.0155 164.619 7.41921 151.268 -16.7948C143.687 -30.4859 140.632 -45.5348 141.084 -61.1495C141.311 -63.073 141.537 -64.8834 141.537 -66.8069L141.65 -66.6938Z" fill="#FCB40C"/>
<path d="M138.567 502.449C133.136 504.599 127.592 506.635 121.934 508.106C119.558 508.785 117.182 509.351 114.806 509.917C112.882 510.256 112.317 511.388 112.43 513.085C112.43 514.669 112.43 516.14 114.467 516.593C122.953 518.403 131.213 521.119 139.359 524.4C141.057 525.079 141.736 524.513 141.509 522.476C140.944 516.366 140.378 510.369 141.509 505.051C141.509 501.657 141.17 501.317 138.567 502.336V502.449Z" fill="#3D0072"/>
<path d="M197.741 374.596C197.741 371.994 197.967 369.278 198.42 366.676C200.117 355.361 206.454 347.44 217.203 343.82C228.178 340.086 238.249 342.349 246.509 350.609C254.542 358.755 256.692 368.599 253.297 379.575C249.79 391.003 240.059 398.245 227.386 399.263C223.539 399.602 223.426 399.602 222.634 403.336C221.05 410.352 218.787 417.254 216.184 423.93C214.6 427.89 213.808 428.456 218.9 428.116C221.955 427.89 225.01 427.89 227.952 427.89C263.82 426.871 289.732 393.379 281.924 358.19C275.927 331.486 251.261 311.911 222.521 313.835C194.233 315.759 172.509 338.388 170.019 364.3C169.454 370.183 169.567 376.067 168.775 381.951C163.004 425.287 126.23 456.969 82.6679 456.517C80.0654 456.29 77.3498 456.064 74.7474 455.951C72.7107 455.838 72.2581 456.29 73.0501 458.101C76.1052 465.908 78.9339 473.715 80.6312 481.975C81.0838 484.238 82.3284 485.03 84.5914 485.03C91.6067 485.03 98.5088 484.238 105.411 482.994C159.27 472.81 196.723 425.627 197.741 374.936V374.596Z" fill="#3D0072"/>
<path d="M83.0038 713.121C85.8325 713.121 88.7744 713.121 91.49 712.668C114.346 708.821 130.64 696.262 137.881 674.084C145.01 652.133 140.371 631.993 123.738 615.36C96.1292 587.751 48.9458 596.351 32.4259 631.766C27.3342 642.629 26.8816 654.17 26.6553 665.711C26.6553 667.409 27.7868 667.522 28.9183 667.069C36.8388 663.788 44.8724 661.185 53.2454 659.375C54.6032 659.036 55.169 658.357 55.2821 657.112C55.5084 654.849 55.7347 652.586 56.1873 650.323C59.0161 635.953 72.8203 625.77 87.0772 627.693C102.692 629.73 113.215 642.855 112.196 658.357C111.291 672.5 99.5236 684.042 84.8142 684.607C80.5145 684.72 76.1017 684.947 71.802 685.399C43.5146 688.568 19.5269 700.448 0.404562 721.494C-24.7147 749.216 -34.6718 782.029 -27.8828 818.916C-20.3018 860.102 3.79904 888.729 42.2699 904.91C55.5084 910.454 69.4258 912.717 83.7958 912.83C99.6368 912.943 111.518 925.277 112.196 940.439C112.875 956.619 99.1842 969.744 85.1536 969.744C81.0802 969.744 81.0803 969.971 80.0619 974.157C78.7041 979.928 76.8937 985.472 74.9702 991.016C74.065 993.506 72.594 995.769 72.4809 998.484C75.0833 999.616 77.6858 998.371 80.2882 998.371C80.854 998.371 81.4197 998.371 82.2117 998.258C82.8906 998.258 83.909 998.258 84.8142 998.258C114.573 998.597 145.576 971.781 140.031 932.631C136.071 904.797 112.083 884.43 83.7958 884.203C58.3372 883.977 36.8387 874.472 20.0926 855.35C2.21495 835.096 -4.68717 811.109 -0.27433 784.405C6.96725 741.408 43.2883 713.46 82.7775 713.008L83.0038 713.121Z" fill="#3D0072"/>
<path d="M1047.88 307.25C1026.95 299.103 1011.44 283.602 1001.26 261.198C996.169 249.996 994.811 238.003 994.358 225.669C993.34 195.232 968.56 171.357 938.236 171.018C934.841 171.018 931.447 170.679 928.053 170.226C903.839 167.397 884.264 156.082 869.554 136.734C858.013 121.685 852.355 104.373 852.355 85.2506C852.355 80.8377 851.79 76.5381 850.771 72.2384C843.756 42.7063 817.505 27.9969 795.102 28.11C765.23 28.2232 738.527 53.0029 738.64 84.798C738.64 91.2475 737.848 97.697 736.49 104.033C726.194 149.52 682.631 177.581 638.389 169.547C592.677 161.287 566.992 121.232 568.35 85.0243C568.35 81.9692 568.35 78.9142 568.35 75.8592C568.35 73.8225 567.897 73.3699 566.087 74.0488C558.393 77.217 550.472 79.8194 542.325 81.6298C539.836 82.1955 539.384 83.6665 539.497 85.7032C539.836 91.587 539.949 97.4707 540.855 103.241C544.928 127.795 555.564 149.18 573.555 166.379C601.842 193.535 635.787 204.284 674.371 197.042C710.466 190.253 737.056 169.773 754.368 137.186C762.967 121.006 766.927 103.468 767.041 85.1374C767.041 78.8011 768.851 73.1436 772.585 68.165C779.827 58.321 792.386 54.2476 803.927 57.9815C815.469 61.6023 823.502 72.1252 823.842 84.3454C824.068 90.0029 824.181 95.7735 824.973 101.431C828.481 125.532 838.551 146.465 855.297 163.89C877.588 186.972 904.97 198.74 936.991 199.192C942.423 199.192 947.514 200.437 952.153 203.266C960.979 208.81 965.731 216.957 965.958 227.367C966.184 233.816 966.297 240.266 967.542 246.602C975.575 287.902 998.884 317.094 1037.58 333.614C1040.98 335.085 1044.37 336.216 1047.76 337.348V307.024L1047.88 307.25Z" fill="#FCB40C"/>
<path d="M-86.5462 229.069C-86.5462 226.579 -86.3199 224.203 -85.7542 221.714C-82.9255 209.268 -72.5157 200.329 -60.0692 199.65C-47.1702 198.858 -35.5157 206.439 -31.3292 218.546C-27.0295 230.653 -31.3292 243.891 -41.739 251.359C-46.4913 254.754 -51.8093 256.451 -57.6931 256.564C-59.5035 256.564 -61.0876 256.677 -61.5402 258.94C-63.2374 267.313 -65.953 275.46 -69.2343 283.381C-69.8001 284.738 -69.3475 285.644 -67.7634 285.53C-61.5402 285.078 -55.3169 285.417 -49.0937 284.399C-14.0173 278.855 7.48111 242.194 -4.6259 208.815C-13.5647 184.148 -38.5708 167.402 -66.7451 171.702C-94.9193 176.115 -114.721 199.65 -115.06 228.05C-115.06 233.029 -115.513 237.894 -116.305 242.76C-119.473 261.09 -127.733 276.931 -141.198 289.717C-158.283 306.124 -178.876 313.931 -203.09 313.705C-204.561 313.591 -206.711 313.478 -208.748 313.252C-212.029 312.913 -212.369 313.252 -211.011 316.533C-208.069 323.775 -205.806 331.13 -203.996 338.711C-203.204 341.992 -202.977 342.105 -199.809 342.105C-194.152 342.218 -188.494 341.653 -182.837 340.747C-126.149 331.582 -86.9988 283.267 -86.6594 228.956L-86.5462 229.069Z" fill="#3D0072"/>
<path d="M209.545 -80.2784C214.863 -84.465 220.973 -85.8228 227.649 -85.9359C233.533 -86.0491 239.304 -86.5017 245.187 -87.52C287.505 -94.4221 320.885 -124.746 334.01 -162.651H303.12C292.597 -140.248 274.38 -125.086 248.356 -117.278C239.869 -114.789 231.157 -114.563 222.444 -114.11C189.97 -112.413 163.493 -81.2968 170.735 -45.6547C176.619 -16.8015 204.454 3.33913 233.307 -0.847397C257.181 -4.2419 272.796 -17.8198 280.716 -40.4498C283.545 -48.7097 282.979 -57.3091 283.771 -65.7953C284.111 -69.1898 283.771 -69.4161 280.377 -67.9451C274.041 -65.3427 267.591 -63.1929 261.028 -61.4956C255.258 -60.0247 255.145 -60.0247 254.692 -54.3672C253.108 -36.6027 235.909 -26.3061 221.765 -29.1348C210.564 -31.2847 201.285 -39.5446 198.909 -50.2938C196.307 -62.2876 199.814 -72.4711 209.658 -80.0521L209.545 -80.2784Z" fill="#3D0072"/>
<path d="M-58.1636 427.77C-53.9771 427.77 -49.9037 428.11 -45.7171 428.676C11.084 436.936 44.4631 498.376 18.3255 551.104C2.93719 581.993 -23.0872 597.608 -57.3716 598.853C-62.4633 599.079 -67.555 599.532 -72.5336 600.889C-97.5397 607.678 -114.625 629.742 -114.965 655.767C-114.965 660.519 -115.304 665.271 -116.096 669.911C-121.754 706.005 -150.833 734.858 -187.041 740.516C-192.925 741.421 -198.809 741.195 -204.579 741.761C-241.013 745.042 -261.72 778.308 -256.289 808.519C-251.423 835.335 -228.454 855.363 -201.411 855.702C-198.243 855.702 -194.962 855.702 -191.793 856.268C-188.738 856.721 -188.286 856.268 -189.417 853.326C-192.02 846.99 -194.169 840.54 -195.867 833.864C-196.432 831.828 -196.546 829.452 -197.677 827.981C-199.035 826.283 -201.637 827.302 -203.674 827.075C-220.081 825.152 -231.622 809.085 -228.001 792.904C-225.059 779.552 -214.084 770.501 -200.393 770.161C-195.075 770.048 -189.757 769.822 -184.552 769.03C-156.83 764.956 -133.521 752.51 -114.965 731.577C-96.295 710.418 -86.9036 685.412 -86.451 657.125C-86.451 652.033 -85.5458 647.281 -83.1697 642.868C-77.8516 633.024 -69.3654 627.819 -58.2768 627.593C-50.922 627.366 -43.5673 626.801 -36.3257 625.443C18.2124 615.033 56.2307 566.266 55.6649 513.538C55.6649 507.993 55.4386 502.562 54.6466 497.018C48.7628 454.474 18.3256 418.04 -22.8609 404.801C-34.5153 401.067 -46.3961 399.37 -58.6162 399.144C-74.344 398.804 -86.7905 385.905 -86.451 370.404C-86.1116 351.96 -70.9495 342.003 -58.7294 342.229C-52.6193 342.229 -46.6224 341.777 -40.6254 340.872C-14.1484 336.459 8.59467 324.578 26.4723 304.437C51.0258 276.603 60.5303 243.902 53.7414 207.694C46.0472 166.621 21.9463 137.881 -16.7509 121.927C-29.6499 116.609 -43.2279 114.007 -57.2584 114.233C-60.8792 114.233 -60.8792 114.233 -61.7844 117.854C-63.2553 124.19 -65.1789 130.3 -67.4419 136.41C-69.1768 140.936 -67.7059 143.086 -63.0291 142.86C-35.4205 141.728 -12.1117 151.346 6.21854 172.165C34.9586 204.979 34.506 255.33 3.16348 287.804C-13.1301 304.664 -33.2707 313.263 -56.6927 313.829C-61.2187 313.942 -65.7446 314.168 -70.2706 315.187C-96.1819 320.957 -114.625 343.474 -115.078 369.951C-115.53 402.085 -90.4113 427.657 -58.2768 428.11L-58.1636 427.77Z" fill="#FCB40C"/>
<path d="M600.15 726.821C616.217 706.454 624.025 683.032 624.93 657.234C625.043 653.274 624.93 653.274 621.083 652.369C613.954 650.558 606.826 648.409 600.037 645.693C599.132 645.354 598.226 645.014 597.321 644.675C596.529 644.448 595.85 644.675 595.737 645.693C595.737 646.825 595.737 647.956 595.85 649.088C596.982 658.479 595.85 667.644 593.587 676.696C582.612 720.824 539.954 747.301 497.297 740.399C462.107 734.742 433.481 706.907 426.918 671.831C425.56 664.476 425.673 657.121 424.994 649.653C422.844 625.892 403.383 600.999 372.153 598.962C336.059 596.586 308.45 627.589 311.958 661.76C314.56 686.54 333.23 707.247 357.783 711.999C364.686 713.357 371.814 712.451 378.716 713.583C380.074 713.809 380.187 712.791 379.734 711.659C378.829 709.396 377.924 707.02 377.132 704.757C375.095 698.987 373.285 693.216 372.04 687.332C371.588 685.522 370.796 684.164 368.646 684.39C367.854 684.39 367.175 684.39 366.383 684.39C353.144 683.485 342.395 673.075 340.472 659.724C338.774 647.617 345.337 633.812 359.481 628.834C372.38 624.421 386.637 629.965 393.312 641.733C396.254 646.825 397.046 652.369 397.16 658.14C398.178 690.727 410.511 718.335 434.499 740.286C456.11 760.087 481.909 769.592 506.688 769.931C545.838 769.931 578.425 754.09 600.037 726.595L600.15 726.821Z" fill="#FCB40C"/>
<path d="M-31.482 -107.771C-40.4208 -112.524 -49.9254 -114.56 -59.7694 -114.334C-62.3718 -114.56 -64.748 -114.787 -67.2373 -114.9C-69.3871 -114.9 -69.8397 -114.56 -69.1608 -112.75C-65.9926 -104.829 -63.2771 -96.6826 -61.4667 -88.3095C-61.1272 -86.8386 -60.3351 -85.9334 -58.751 -85.8202C-57.8458 -85.8202 -56.8275 -85.5939 -55.9223 -85.5939C-41.8918 -85.2545 -27.748 -71.7897 -29.7847 -53.7989C-31.3688 -39.3157 -45.2863 -27.435 -59.43 -28.6797C-75.4972 -30.1506 -86.3596 -41.9182 -86.5859 -58.2117C-87.1516 -91.0251 -99.1455 -118.973 -123.359 -141.15C-133.43 -150.315 -144.179 -157.557 -155.494 -162.536H-243.864C-277.243 -149.523 -299.194 -123.952 -309.943 -87.5175V-10.802C-295.46 -20.9855 -285.729 -37.8448 -285.729 -57.0802C-285.729 -62.3982 -285.277 -67.7163 -284.258 -72.9212C-275.433 -119.765 -231.191 -149.863 -184.913 -141.49C-149.497 -135.04 -121.662 -106.527 -116.118 -70.7713C-115.213 -64.8875 -115.439 -59.0037 -114.873 -53.2331C-111.479 -15.7806 -78.3259 3.11539 -50.7174 -0.844849C-26.0508 -4.35248 -6.13647 -22.7959 -1.94995 -48.1414C2.46289 -74.8447 -11.6808 -97.4746 -31.482 -107.884V-107.771Z" fill="#3D0072"/>
<path d="M141.496 788.701C141.496 787.457 140.93 787.004 139.798 787.457C138.893 787.796 137.988 788.136 137.196 788.475C130.181 791.304 123.052 793.567 115.697 795.151C113.548 795.603 112.416 796.509 112.416 798.885C112.416 801.035 113.434 801.827 115.358 802.166C117.621 802.619 119.771 803.298 121.921 803.863C128.031 805.334 133.801 807.71 139.572 809.86C140.817 810.313 141.835 810.2 141.609 808.389C141.382 806.353 141.269 804.203 141.043 801.6C140.477 798.885 141.043 795.717 141.269 792.548C141.269 791.191 141.496 789.946 141.609 788.588L141.496 788.701Z" fill="#3D0072"/>
<path d="M-213.024 1139.7C-205.782 1141.29 -198.314 1140.84 -190.96 1141.63C-189.036 1141.85 -188.583 1141.18 -189.375 1139.37C-192.657 1131.44 -195.259 1123.3 -197.07 1114.93C-197.409 1113.34 -198.314 1112.66 -199.785 1112.66C-200.917 1112.66 -202.048 1112.44 -203.18 1112.32C-215.287 1110.85 -223.547 1104.29 -227.394 1092.86C-231.241 1081.32 -228.073 1071.02 -219.247 1062.76C-211.44 1055.52 -199.333 1053.03 -188.583 1058.24C-177.608 1063.56 -172.177 1072.61 -172.064 1084.6C-172.064 1090.15 -171.611 1095.58 -170.819 1101.01C-163.69 1148.08 -128.614 1184.74 -84.1463 1195.15H-32.4369C-12.6357 1190.62 5.69449 1180.78 20.5171 1166.29C43.0339 1144.12 54.9146 1117.19 55.254 1085.28C55.3672 1076.11 58.5354 1068.19 65.6638 1062.08C71.5476 1056.99 78.676 1055.18 86.257 1055.18C92.3671 1055.18 98.364 1054.62 104.361 1053.6C167.498 1041.72 209.138 980.729 194.881 916.121C185.037 871.314 148.716 836.69 103.795 828.883C96.8931 827.638 89.8778 827.072 82.8625 826.959C68.7188 826.733 54.5751 815.078 55.4803 797.314C56.4987 778.418 71.6607 769.819 84.2203 769.932C87.8411 769.932 91.4619 769.932 94.9695 769.479C122.465 766.311 146.339 755.449 165.575 735.082C192.618 706.455 203.141 672.284 195.333 633.813C186.508 589.911 159.578 561.058 117.373 546.801C106.737 543.18 95.6484 541.709 84.4466 541.709C82.1837 541.709 80.939 542.388 80.4864 544.651C78.7891 552.911 76.0735 560.718 72.9054 568.525C72.1133 570.336 72.5659 570.902 74.6026 570.675C82.9757 569.77 91.2356 569.996 99.4955 571.58C145.434 580.406 175.872 623.403 168.064 670.247C161.502 709.962 127.33 740.287 86.5965 741.418C82.6362 741.418 78.676 741.644 74.7158 742.323C42.6944 747.415 21.196 779.436 28.5507 811.118C35.0002 839.179 59.6669 855.812 83.994 855.699C95.309 855.699 106.171 857.849 116.694 862.262C148.829 875.5 173.722 909.106 168.743 952.103C166.254 973.488 156.523 991.479 140.343 1005.74C124.841 1019.31 106.624 1026.56 85.9176 1026.78C82.8625 1026.78 79.9206 1027.12 76.8656 1027.57C51.7464 1030.52 31.2663 1050.88 27.8718 1075.89C27.0798 1082.11 27.5324 1088.45 26.6272 1094.67C20.5171 1140.16 -17.1617 1168.56 -53.9354 1169.46C-90.1432 1170.37 -116.96 1154.53 -134.272 1122.73C-140.947 1110.51 -143.324 1097.16 -143.55 1083.24C-144.229 1047.49 -176.363 1021.46 -211.326 1028.14C-237.351 1033.12 -256.926 1056.54 -257.378 1083.02C-257.718 1110.29 -239.161 1133.93 -213.024 1139.82V1139.7Z" fill="#FCB40C"/>
<path d="M255.679 943.842C257.49 945.426 260.545 945.539 263.147 946.218C269.031 947.802 274.688 949.726 280.346 951.989C283.967 953.459 283.967 953.346 283.74 949.273C283.514 945.313 283.401 941.352 282.948 937.279C280.799 913.97 268.805 897.79 247.533 888.398C239.725 885.004 231.465 883.986 222.979 884.099C221.734 884.099 220.49 883.986 219.132 883.872C214.493 883.646 214.38 883.759 216.077 887.833C218.566 894.056 220.49 900.392 222.187 906.729C223.545 911.934 223.545 911.934 228.976 912.726C242.215 914.536 252.398 923.927 254.322 936.034C254.774 938.637 253.756 942.031 255.679 943.615V943.842Z" fill="#3D0072"/>
</g>
</g>
<defs>
<clipPath id="clip0_1664_20885">
<rect width="736.225" height="952" fill="white" transform="translate(0.775391 0.5)"/>
</clipPath>
<clipPath id="clip1_1664_20885">
<rect width="1357.89" height="952" fill="white" transform="translate(-309.946 0.5)"/>
</clipPath>
</defs>
</svg>
