<svg width="95" height="32" viewBox="0 0 95 32" fill="none" xmlns="http://www.w3.org/2000/svg">
<g clip-path="url(#clip0_4107_43815)">
<path d="M10.7199 6.56297C10.7199 8.59621 10.7199 10.6354 10.7318 12.6686C10.7318 14.4233 10.1627 16.1305 8.53258 17.0315C6.62975 18.0748 3.92667 17.808 1.80451 17.5887C1.72152 17.5887 1.65039 17.5709 1.57333 17.565C1.64446 16.1008 1.61482 14.6189 1.54369 13.1606C1.45477 11.1807 2.65219 8.82147 4.78027 8.48951C7.08619 8.12791 9.09572 7.87894 10.1864 6.60446C10.222 6.5689 10.2576 6.5274 10.2872 6.48591C10.4473 6.26658 10.6192 6.0591 10.7911 5.8457C10.7377 6.07689 10.7199 6.31993 10.7199 6.55704V6.56297Z" fill="#3D0072"/>
<path d="M3.74812 30.8478C5.33677 30.9486 6.93728 30.9249 8.52593 30.9545C10.3813 30.9842 12.2842 31.2154 14.0744 30.8893C16.647 30.421 19.5398 28.7435 20.4942 26.2597C21.3774 23.9597 20.9625 21.2151 19.439 19.2827C19.3323 19.1523 19.2197 19.0218 19.0952 18.8914C17.554 17.2079 15.1651 16.3247 12.8888 16.627C10.0612 17.0005 7.57156 19.2234 6.83651 21.9798C6.38007 23.6989 6.77723 25.5247 6.51048 27.2734C6.29115 28.7197 5.05223 30.2017 3.74219 30.8478H3.74812Z" fill="#3D0072"/>
<path d="M19.6361 0C19.4938 0.432731 19.6657 0.901028 19.8495 1.31598C22.2088 6.57395 28.5278 10.1306 28.3085 16.4497C28.2077 19.3069 26.785 22.662 24.3961 24.3574C24.2242 24.4819 24.0642 24.5886 23.8626 24.6479C23.4062 23.7943 23.3587 22.5494 22.9734 21.6128C22.4874 20.4332 21.8472 19.2773 20.9521 18.3644C20.0925 17.493 19.0196 16.9891 18.1601 16.1355C16.358 14.3335 15.2199 11.8675 15.0717 9.31853C14.8583 5.6907 16.6722 2.08659 19.642 0.0118556L19.6361 0Z" fill="#3D0072"/>
<path d="M3.22728 12.6861C3.22728 12.6861 3.14429 11.1034 4.76851 11.1805C4.76851 11.1805 5.36129 12.9114 3.22728 12.6861Z" fill="#240552" stroke="#3D0072" stroke-width="0.249246" stroke-miterlimit="10"/>
<path d="M2.69123 26.1061C4.17755 26.1061 5.38246 24.9012 5.38246 23.4149C5.38246 21.9285 4.17755 20.7236 2.69123 20.7236C1.2049 20.7236 0 21.9285 0 23.4149C0 24.9012 1.2049 26.1061 2.69123 26.1061Z" fill="#3D0072"/>
<path d="M34.6681 26.1484L39.8253 12.3662H42.5877L47.7449 26.1484H45.0477L43.7851 22.8051H38.6457L37.383 26.1484H34.6562H34.6681ZM39.5111 20.5703H42.9493L41.2124 15.3064L39.5111 20.5703Z" fill="#3D0072"/>
<path d="M49.125 26.1483V16.812H51.5673V18.9993C51.7925 18.1991 52.1482 17.6004 52.6343 17.2032C53.1144 16.806 53.642 16.6045 54.217 16.6045C54.792 16.6045 55.3077 16.7171 55.7523 16.9483L55.3314 19.1357C54.958 18.9638 54.4897 18.8808 53.9147 18.8808C52.3497 18.8808 51.5732 20.2027 51.5732 22.8406V26.1483H49.1309H49.125Z" fill="#3D0072"/>
<path d="M56.9438 23.4865C56.6948 22.8759 56.5703 22.2061 56.5703 21.4888C56.5703 20.7716 56.6948 20.1017 56.9438 19.4793C57.1927 18.8569 57.5247 18.3412 57.9456 17.9203C58.3664 17.5053 58.8584 17.1793 59.4157 16.9481C59.9788 16.7169 60.5657 16.5984 61.1822 16.5984C61.7986 16.5984 62.4033 16.7288 62.9368 16.9837C63.4703 17.2386 63.8615 17.6002 64.1164 18.0566V11.7139H66.5587V26.1422H64.1164V24.8736C63.8615 25.3301 63.4703 25.6917 62.9309 25.9466C62.3974 26.2074 61.8105 26.3319 61.1822 26.3319C60.5538 26.3319 59.9788 26.2133 59.4216 25.9821C58.8644 25.7509 58.3724 25.4308 57.9515 25.0159C57.5306 24.6009 57.1927 24.0911 56.9438 23.4747V23.4865ZM59.1311 21.4533C59.1311 22.2061 59.3682 22.8167 59.8365 23.2909C60.3108 23.7651 60.8917 24.0022 61.5852 24.0022C62.2788 24.0022 62.8597 23.7651 63.3517 23.2968C63.8437 22.8285 64.0809 22.212 64.0809 21.4592C64.0809 20.7064 63.8319 20.0958 63.3339 19.6394C62.836 19.1829 62.2551 18.9577 61.5852 18.9577C60.9154 18.9577 60.3048 19.1888 59.8365 19.6512C59.3682 20.1136 59.1311 20.7182 59.1311 21.4651V21.4533Z" fill="#3D0072"/>
<path d="M68.9062 13.184C68.9062 12.7749 69.0604 12.4252 69.3745 12.1407C69.6887 11.8561 70.0562 11.7139 70.4831 11.7139C70.9099 11.7139 71.2714 11.8561 71.5797 12.1407C71.8879 12.4252 72.0361 12.769 72.0361 13.184C72.0361 13.5989 71.882 13.9487 71.5797 14.2332C71.2774 14.5177 70.9099 14.66 70.4831 14.66C70.0562 14.66 69.6769 14.5177 69.3686 14.2332C69.0604 13.9487 68.9062 13.5989 68.9062 13.184ZM69.2501 26.1481V16.8118H71.6923V26.1481H69.2501Z" fill="#3D0072"/>
<path d="M74.4453 26.1483V14.6602H76.8876V26.1483H74.4453Z" fill="#3D0072"/>
<path d="M79.6328 26.148V11.7197H82.0751V26.148H79.6328Z" fill="#3D0072"/>
<path d="M84.2578 21.4643C84.2578 20.7352 84.3882 20.0654 84.655 19.4429C84.9217 18.8264 85.2774 18.3107 85.722 17.9017C86.1666 17.4927 86.6764 17.1726 87.2514 16.9473C87.8264 16.7221 88.4251 16.6035 89.0475 16.6035C89.5632 16.6035 90.0967 16.7102 90.648 16.9295C91.1993 17.1489 91.632 17.4927 91.9462 17.961V16.8051H94.3885V26.1414H91.9462V24.9321C91.6735 25.3767 91.2526 25.7205 90.6836 25.9576C90.1145 26.1947 89.5691 26.3133 89.0534 26.3133C88.2176 26.3133 87.4411 26.1177 86.7179 25.7323C85.9947 25.347 85.4019 24.772 84.9454 24.0192C84.489 23.2664 84.2637 22.4128 84.2637 21.4525L84.2578 21.4643ZM86.8186 21.4643C86.8186 22.1934 87.0735 22.7922 87.5893 23.2664C88.105 23.7406 88.7037 23.9777 89.3913 23.9777C90.0789 23.9777 90.6836 23.7525 91.1874 23.296C91.6913 22.8396 91.9403 22.229 91.9403 21.4643C91.9403 20.6996 91.6854 20.0891 91.1756 19.6326C90.6658 19.1762 90.0671 18.9509 89.3854 18.9509C88.7037 18.9509 88.0872 19.188 87.5774 19.6563C87.0676 20.1306 86.8127 20.7293 86.8127 21.4643H86.8186Z" fill="#3D0072"/>
</g>
<defs>
<clipPath id="clip0_4107_43815">
<rect width="94.3945" height="31.0618" fill="white"/>
</clipPath>
</defs>
</svg>
