<svg width="19" height="18" viewBox="0 0 19 18" fill="none" xmlns="http://www.w3.org/2000/svg">
<path d="M9.34766 15.2578C8.57682 15.2578 7.84815 15.1314 7.16162 14.8784C6.4751 14.6255 5.85482 14.2762 5.30078 13.8306L4.37939 14.752C4.23486 14.8965 4.06624 14.9656 3.87354 14.9594C3.68083 14.9536 3.51221 14.8784 3.36768 14.7339C3.22314 14.5894 3.15088 14.4176 3.15088 14.2186C3.15088 14.0201 3.22314 13.8486 3.36768 13.7041L4.271 12.8008C3.82536 12.2467 3.47607 11.6233 3.22314 10.9305C2.97021 10.2382 2.84375 9.5127 2.84375 8.75391C2.84375 6.94727 3.47921 5.41162 4.75012 4.14697C6.02055 2.88232 7.55306 2.25 9.34766 2.25H14.4063C14.8037 2.25 15.1441 2.3914 15.4274 2.6742C15.7102 2.95748 15.8516 3.29785 15.8516 3.69531V8.75391C15.8516 10.5485 15.2192 12.0813 13.9546 13.3522C12.6899 14.6226 11.1543 15.2578 9.34766 15.2578ZM9.34766 13.8125C10.7568 13.8125 11.9521 13.3187 12.9335 12.3311C13.9153 11.3434 14.4063 10.151 14.4063 8.75391V3.69531H9.34766C7.95052 3.69531 6.75814 4.186 5.77051 5.16736C4.78288 6.14921 4.28906 7.34473 4.28906 8.75391C4.28906 10.151 4.78288 11.3434 5.77051 12.3311C6.75814 13.3187 7.95052 13.8125 9.34766 13.8125ZM8.39014 12.2769L12.1299 8.93457C12.2503 8.82617 12.2865 8.69658 12.2383 8.54578C12.1901 8.39547 12.0817 8.30827 11.9131 8.28418L8.98633 7.99512L10.7388 5.59229C10.7869 5.53206 10.8079 5.46871 10.8016 5.40223C10.7959 5.33622 10.7689 5.27311 10.7207 5.21289C10.6605 5.15267 10.5913 5.12256 10.5133 5.12256C10.4348 5.12256 10.3654 5.15267 10.3052 5.21289L6.5835 8.55518C6.46305 8.66358 6.42692 8.79293 6.4751 8.94324C6.52328 9.09404 6.63167 9.18148 6.80029 9.20557L9.72705 9.49463L7.95654 11.8975C7.92041 11.9577 7.90234 12.021 7.90234 12.0875C7.90234 12.1535 7.93246 12.2166 7.99268 12.2769C8.0529 12.3371 8.11914 12.3672 8.19141 12.3672C8.26367 12.3672 8.32992 12.3371 8.39014 12.2769Z" fill="#E8356D"/>
</svg>
