<svg width="15" height="15" viewBox="0 0 15 15" fill="none" xmlns="http://www.w3.org/2000/svg">
<path d="M12.4922 2.42578H2.86719C2.66413 2.42578 2.46939 2.50645 2.32581 2.65003C2.18223 2.79361 2.10156 2.98835 2.10156 3.19141V10.6289C2.10156 10.832 2.18223 11.0267 2.32581 11.1703C2.46939 11.3139 2.66413 11.3945 2.86719 11.3945H3.85156V12.3789C3.85156 12.4659 3.88613 12.5494 3.94767 12.6109C4.0092 12.6725 4.09266 12.707 4.17969 12.707C4.26671 12.707 4.35017 12.6725 4.41171 12.6109C4.47324 12.5494 4.50781 12.4659 4.50781 12.3789V11.3945H10.8516V12.3789C10.8516 12.4659 10.8861 12.5494 10.9477 12.6109C11.0092 12.6725 11.0927 12.707 11.1797 12.707C11.2667 12.707 11.3502 12.6725 11.4117 12.6109C11.4732 12.5494 11.5078 12.4659 11.5078 12.3789V11.3945H12.4922C12.6952 11.3945 12.89 11.3139 13.0336 11.1703C13.1771 11.0267 13.2578 10.832 13.2578 10.6289V3.19141C13.2578 2.98835 13.1771 2.79361 13.0336 2.65003C12.89 2.50645 12.6952 2.42578 12.4922 2.42578ZM12.4922 10.7383H2.86719C2.83818 10.7383 2.81036 10.7268 2.78985 10.7062C2.76934 10.6857 2.75781 10.6579 2.75781 10.6289V3.19141C2.75781 3.1624 2.76934 3.13458 2.78985 3.11407C2.81036 3.09355 2.83818 3.08203 2.86719 3.08203H12.4922C12.5212 3.08203 12.549 3.09355 12.5695 3.11407C12.59 3.13458 12.6016 3.1624 12.6016 3.19141V6.80078H11.4859C11.4026 6.16751 11.0815 5.58965 10.5878 5.18441C10.0941 4.77918 9.46475 4.57691 8.82739 4.61866C8.19003 4.6604 7.59242 4.94303 7.15578 5.4092C6.71914 5.87537 6.47618 6.49018 6.47618 7.12891C6.47618 7.76763 6.71914 8.38244 7.15578 8.84861C7.59242 9.31478 8.19003 9.59741 8.82739 9.63915C9.46475 9.6809 10.0941 9.47864 10.5878 9.0734C11.0815 8.66816 11.4026 8.0903 11.4859 7.45703H12.6016V10.6289C12.6016 10.6579 12.59 10.6857 12.5695 10.7062C12.549 10.7268 12.5212 10.7383 12.4922 10.7383ZM9.68289 6.80078C9.60839 6.64372 9.48266 6.51669 9.32638 6.44058C9.17009 6.36446 8.99256 6.3438 8.82297 6.38198C8.65338 6.42016 8.50184 6.51492 8.39325 6.65067C8.28467 6.78641 8.22552 6.95507 8.22552 7.12891C8.22552 7.30274 8.28467 7.4714 8.39325 7.60715C8.50184 7.74289 8.65338 7.83765 8.82297 7.87583C8.99256 7.91402 9.17009 7.89335 9.32638 7.81724C9.48266 7.74112 9.60839 7.61409 9.68289 7.45703H10.822C10.74 7.91436 10.4898 8.32443 10.1206 8.60648C9.75136 8.88853 9.28992 9.02213 8.82713 8.98097C8.36433 8.93981 7.93371 8.72688 7.62006 8.3841C7.30641 8.04132 7.13246 7.59353 7.13246 7.12891C7.13246 6.66428 7.30641 6.21649 7.62006 5.87371C7.93371 5.53093 8.36433 5.318 8.82713 5.27684C9.28992 5.23568 9.75136 5.36928 10.1206 5.65133C10.4898 5.93339 10.74 6.34345 10.822 6.80078H9.68289Z" fill="black"/>
</svg>
