<svg width="13" height="13" viewBox="0 0 13 13" fill="none" xmlns="http://www.w3.org/2000/svg">
<g clip-path="url(#clip0_4160_30811)">
<path d="M1.88281 8.53125C1.88281 7.11725 1.88281 6.40975 2.32231 5.97075C2.76131 5.53125 3.46881 5.53125 4.88281 5.53125H8.88281C10.2968 5.53125 11.0043 5.53125 11.4433 5.97075C11.8828 6.40975 11.8828 7.11725 11.8828 8.53125C11.8828 9.94525 11.8828 10.6528 11.4433 11.0918C11.0043 11.5313 10.2968 11.5312 8.88281 11.5312H4.88281C3.46881 11.5312 2.76131 11.5313 2.32231 11.0918C1.88281 10.6528 1.88281 9.94525 1.88281 8.53125Z" stroke="black" stroke-width="0.463709"/>
<path d="M3.88281 5.5293V4.5293C3.88281 3.73365 4.19888 2.97059 4.76149 2.40798C5.3241 1.84537 6.08716 1.5293 6.88281 1.5293C7.67846 1.5293 8.44152 1.84537 9.00413 2.40798C9.56674 2.97059 9.88281 3.73365 9.88281 4.5293V5.5293" stroke="black" stroke-width="0.463709" stroke-linecap="round"/>
</g>
<defs>
<clipPath id="clip0_4160_30811">
<rect width="12" height="12" fill="white" transform="translate(0.890625 0.527344)"/>
</clipPath>
</defs>
</svg>
