<svg width="15" height="15" viewBox="0 0 15 15" fill="none" xmlns="http://www.w3.org/2000/svg">
<g clip-path="url(#clip0_4160_30805)">
<path d="M6.90402 10.9592L6.90531 10.9597C6.94398 10.9748 6.99121 10.9839 7.04948 10.9839C7.10747 10.9839 7.16307 10.9748 7.21708 10.9567L7.21764 10.9566C7.2662 10.9405 7.3011 10.9182 7.32712 10.8922L7.33365 10.8857L7.33381 10.8859C7.72124 10.5353 8.03232 10.0977 8.26586 9.56973L8.26588 9.56969C8.49939 9.04215 8.61465 8.51589 8.61465 7.98958C8.61465 7.46329 8.49939 6.93684 8.26588 6.4089L6.90402 10.9592ZM6.90402 10.9592C6.86251 10.9435 6.8198 10.9187 6.77601 10.8825C6.38041 10.5324 6.06581 10.0958 5.8331 9.56973L5.83308 9.56969M6.90402 10.9592L5.83308 9.56969M5.83308 9.56969C5.59957 9.04215 5.48431 8.51589 5.48431 7.98958M5.83308 9.56969L5.48431 7.98958M5.48431 7.98958C5.48431 7.46329 5.59956 6.93684 5.83308 6.4089L5.48431 7.98958ZM7.44323 4.95625C7.3849 4.90764 7.32423 4.86875 7.26123 4.83958L7.18397 5.00749C7.14746 4.99069 7.10366 4.98067 7.04948 4.98067C6.99545 4.98067 6.94743 4.99066 6.90354 5.00947C6.85338 5.03096 6.80637 5.0596 6.76222 5.09597C6.37614 5.44606 6.06604 5.8826 5.8331 6.40885L7.18358 5.00731C7.23 5.0288 7.27648 5.05815 7.32292 5.0966M7.44323 4.95625L7.32083 5.09475C7.32153 5.09537 7.32223 5.09598 7.32292 5.0966M7.44323 4.95625L7.3249 5.09824C7.32424 5.09769 7.32358 5.09714 7.32292 5.0966M7.44323 4.95625L7.32292 5.0966M8.65307 11.8186L8.65302 11.8186C8.52635 11.7938 8.40173 11.7623 8.27914 11.7242C8.72808 11.345 9.08816 10.8206 9.36378 10.1608C9.6912 9.377 9.85931 8.65241 9.85931 7.98958C9.85931 7.32676 9.6912 6.60217 9.36378 5.81834C9.08816 5.15853 8.72808 4.63418 8.27914 4.25497C8.40173 4.21684 8.52635 4.18537 8.65302 4.16055L8.65307 4.16054C8.88861 4.11432 9.13179 4.09108 9.38281 4.09108C10.4721 4.09108 11.3897 4.46829 12.1466 5.2252C12.9039 5.98251 13.2813 6.90029 13.2813 7.98958C13.2813 9.07888 12.9039 9.99644 12.1466 10.7534L12.1466 10.7534C11.3897 11.5107 10.4721 11.8881 9.38281 11.8881C9.13179 11.8881 8.88861 11.8648 8.65307 11.8186ZM1.95237 10.7534L1.95231 10.7534C1.19502 9.99644 0.817644 9.07888 0.817644 7.98958C0.817644 6.90029 1.19502 5.98251 1.95234 5.2252C2.70925 4.46829 3.62682 4.09108 4.71615 4.09108C4.96717 4.09108 5.21035 4.11432 5.44589 4.16054L5.44594 4.16055C5.57261 4.18537 5.69723 4.21684 5.81982 4.25497C5.37087 4.63418 5.0108 5.15853 4.73518 5.81834C4.40776 6.60217 4.23965 7.32676 4.23965 7.98958C4.23965 8.65241 4.40776 9.377 4.73518 10.1608C5.0108 10.8206 5.37087 11.345 5.81982 11.7242C5.69723 11.7623 5.57261 11.7938 5.44594 11.8186L5.44589 11.8186C5.21035 11.8648 4.96717 11.8881 4.71615 11.8881C3.62685 11.8881 2.70929 11.5107 1.95237 10.7534Z" stroke="black" stroke-width="0.369664"/>
</g>
<defs>
<clipPath id="clip0_4160_30805">
<rect width="14" height="14" fill="white" transform="translate(0.0546875 0.988281)"/>
</clipPath>
</defs>
</svg>
