<svg width="23" height="23" viewBox="0 0 23 23" fill="none" xmlns="http://www.w3.org/2000/svg">
<path d="M11.5129 19.6751C9.27994 19.6751 7.04702 19.3205 4.92911 18.6113C4.12411 18.3334 3.51077 17.768 3.24244 17.0301C2.96452 16.2922 3.06036 15.4776 3.50119 14.7492L4.60327 12.9188C4.83327 12.5355 5.04411 11.7688 5.04411 11.3184V8.54883C5.04411 4.98383 7.94786 2.08008 11.5129 2.08008C15.0779 2.08008 17.9816 4.98383 17.9816 8.54883V11.3184C17.9816 11.7592 18.1924 12.5355 18.4224 12.9284L19.5149 14.7492C19.927 15.4392 20.0037 16.273 19.7258 17.0301C19.4479 17.7872 18.8441 18.3622 18.087 18.6113C15.9787 19.3205 13.7458 19.6751 11.5129 19.6751ZM11.5129 3.51758C8.74327 3.51758 6.48161 5.76966 6.48161 8.54883V11.3184C6.48161 12.018 6.19411 13.053 5.83952 13.6567L4.73744 15.4872C4.52661 15.8417 4.46911 16.2155 4.59369 16.5317C4.70869 16.8576 4.99619 17.1067 5.38911 17.2409C9.39494 18.5826 13.6404 18.5826 17.6462 17.2409C17.9912 17.1259 18.2595 16.8672 18.3841 16.5222C18.5087 16.1772 18.4799 15.8034 18.2883 15.4872L17.1862 13.6567C16.822 13.0338 16.5441 12.0084 16.5441 11.3088V8.54883C16.5441 5.76966 14.292 3.51758 11.5129 3.51758Z" fill="#041004"/>
<path d="M13.3083 3.77586C13.2412 3.77586 13.1741 3.76628 13.107 3.74711C12.8291 3.67044 12.5608 3.61294 12.302 3.57461C11.4874 3.46919 10.7016 3.52669 9.96368 3.74711C9.69535 3.83336 9.40785 3.74711 9.22577 3.54586C9.04368 3.34461 8.98618 3.05711 9.0916 2.79836C9.48452 1.79211 10.4428 1.13086 11.5353 1.13086C12.6278 1.13086 13.5862 1.78253 13.9791 2.79836C14.0749 3.05711 14.027 3.34461 13.8449 3.54586C13.7012 3.69919 13.4999 3.77586 13.3083 3.77586Z" fill="#041004"/>
<path d="M11.5156 21.8594C10.5669 21.8594 9.64687 21.476 8.97604 20.8052C8.30521 20.1344 7.92188 19.2144 7.92188 18.2656H9.35937C9.35937 18.831 9.58937 19.3869 9.99187 19.7894C10.3944 20.1919 10.9502 20.4219 11.5156 20.4219C12.704 20.4219 13.6719 19.454 13.6719 18.2656H15.1094C15.1094 20.2494 13.4994 21.8594 11.5156 21.8594Z" fill="#041004"/>
</svg>
