<svg width="12" height="13" viewBox="0 0 12 13" fill="none" xmlns="http://www.w3.org/2000/svg">
<path d="M4.58125 6.05805C4.56625 6.05805 4.55625 6.05805 4.54125 6.05805C4.51625 6.05305 4.48125 6.05305 4.45125 6.05805C3.00125 6.01305 1.90625 4.87305 1.90625 3.46805C1.90625 2.03805 3.07125 0.873047 4.50125 0.873047C5.93125 0.873047 7.09625 2.03805 7.09625 3.46805C7.09125 4.87305 5.99125 6.01305 4.59625 6.05805C4.59125 6.05805 4.58625 6.05805 4.58125 6.05805ZM4.50125 1.62305C3.48625 1.62305 2.65625 2.45305 2.65625 3.46805C2.65625 4.46805 3.43625 5.27305 4.43125 5.30805C4.46125 5.30305 4.52625 5.30305 4.59125 5.30805C5.57125 5.26305 6.34125 4.45805 6.34625 3.46805C6.34625 2.45305 5.51625 1.62305 4.50125 1.62305Z" fill="black"/>
<path d="M8.27115 6.12305C8.25615 6.12305 8.24115 6.12305 8.22615 6.11805C8.02115 6.13805 7.81115 5.99305 7.79115 5.78805C7.77115 5.58305 7.89615 5.39805 8.10115 5.37305C8.16115 5.36805 8.22615 5.36805 8.28115 5.36805C9.01115 5.32805 9.58115 4.72805 9.58115 3.99305C9.58115 3.23305 8.96615 2.61805 8.20615 2.61805C8.00115 2.62305 7.83115 2.45305 7.83115 2.24805C7.83115 2.04305 8.00115 1.87305 8.20615 1.87305C9.37615 1.87305 10.3312 2.82805 10.3312 3.99805C10.3312 5.14805 9.43115 6.07805 8.28615 6.12305C8.28115 6.12305 8.27615 6.12305 8.27115 6.12305Z" fill="black"/>
<path d="M4.58188 11.523C3.60188 11.523 2.61688 11.273 1.87188 10.773C1.17688 10.313 0.796875 9.68305 0.796875 8.99805C0.796875 8.31305 1.17688 7.67805 1.87188 7.21305C3.37188 6.21805 5.80188 6.21805 7.29187 7.21305C7.98187 7.67305 8.36687 8.30305 8.36687 8.98805C8.36687 9.67305 7.98688 10.308 7.29187 10.773C6.54187 11.273 5.56188 11.523 4.58188 11.523ZM2.28688 7.84305C1.80687 8.16305 1.54687 8.57305 1.54687 9.00305C1.54687 9.42805 1.81187 9.83805 2.28688 10.153C3.53188 10.988 5.63188 10.988 6.87687 10.153C7.35687 9.83305 7.61687 9.42305 7.61687 8.99305C7.61687 8.56805 7.35187 8.15805 6.87687 7.84305C5.63188 7.01305 3.53188 7.01305 2.28688 7.84305Z" fill="black"/>
<path d="M9.16911 10.6231C8.99411 10.6231 8.83911 10.5031 8.80411 10.3231C8.76411 10.1181 8.89411 9.92306 9.09411 9.87806C9.40911 9.81306 9.69911 9.68806 9.92411 9.51306C10.2091 9.29806 10.3641 9.02806 10.3641 8.74306C10.3641 8.45806 10.2091 8.18806 9.92911 7.97806C9.70911 7.80806 9.43411 7.68806 9.10911 7.61306C8.90911 7.56806 8.77911 7.36806 8.82411 7.16306C8.86911 6.96306 9.06911 6.83306 9.27411 6.87806C9.70411 6.97306 10.0791 7.14306 10.3841 7.37806C10.8491 7.72806 11.1141 8.22306 11.1141 8.74306C11.1141 9.26306 10.8441 9.75806 10.3791 10.1131C10.0691 10.3531 9.67911 10.5281 9.24911 10.6131C9.21911 10.6231 9.19411 10.6231 9.16911 10.6231Z" fill="black"/>
</svg>
