<svg width="36" height="34" viewBox="0 0 36 34" fill="none" xmlns="http://www.w3.org/2000/svg">
<rect x="0.367188" y="0.107422" width="35.6172" height="33.3535" rx="2" fill="#FEF1F1"/>
<path d="M10.4161 22.5349L15.6891 17.262L18.9225 20.4954C19.3304 20.9033 19.987 20.8834 20.3651 20.4556L27.4985 12.4268C27.8468 12.0388 27.8269 11.4418 27.4587 11.0638C27.3631 10.9684 27.2491 10.8936 27.1236 10.8437C26.9982 10.7939 26.8639 10.7701 26.7289 10.7738C26.5939 10.7775 26.4611 10.8087 26.3386 10.8654C26.2161 10.9221 26.1064 11.0031 26.0161 11.1035L19.6587 18.2469L16.3855 14.9737C16.2935 14.8815 16.1841 14.8083 16.0638 14.7584C15.9434 14.7085 15.8144 14.6828 15.6841 14.6828C15.5538 14.6828 15.4248 14.7085 15.3044 14.7584C15.1841 14.8083 15.0747 14.8815 14.9827 14.9737L8.92376 21.0426C8.83153 21.1346 8.75836 21.244 8.70844 21.3643C8.65851 21.4847 8.63281 21.6137 8.63281 21.744C8.63281 21.8743 8.65851 22.0033 8.70844 22.1237C8.75836 22.244 8.83153 22.3534 8.92376 22.4454L9.01331 22.5349C9.40132 22.923 10.0381 22.923 10.4161 22.5349Z" fill="#EF4444"/>
</svg>
