<svg width="15" height="15" viewBox="0 0 15 15" fill="none" xmlns="http://www.w3.org/2000/svg">
<g clip-path="url(#clip0_4228_28874)">
<path d="M8.87239 2.96875H5.3724C3.73381 2.96875 2.91481 2.96875 2.32623 3.36192C2.07135 3.5322 1.85251 3.75103 1.68223 4.00592C1.28906 4.5945 1.28906 5.41292 1.28906 7.05208C1.28906 8.69067 1.28906 9.50967 1.68223 10.0982C1.85251 10.3531 2.07135 10.572 2.32623 10.7422C2.52865 10.8776 2.7579 10.9662 3.03906 11.0246M5.3724 11.1354H8.87239C10.511 11.1354 11.33 11.1354 11.9186 10.7422C12.1734 10.5719 12.3922 10.3531 12.5626 10.0982C12.9557 9.50967 12.9557 8.69125 12.9557 7.05208C12.9557 5.4135 12.9557 4.5945 12.5626 4.00592C12.3923 3.75105 12.1734 3.53222 11.9186 3.36192C11.7161 3.22658 11.4869 3.13792 11.2057 3.07958" stroke="black" stroke-width="0.597698" stroke-linecap="round"/>
<path d="M5.36719 5.30273C4.90306 5.30273 4.45794 5.48711 4.12975 5.8153C3.80156 6.14349 3.61719 6.58861 3.61719 7.05273C3.61719 7.51686 3.80156 7.96198 4.12975 8.29017C4.45794 8.61836 4.90306 8.80273 5.36719 8.80273M8.86719 5.30273C9.33132 5.30273 9.77644 5.48711 10.1046 5.8153C10.4328 6.14349 10.6172 6.58861 10.6172 7.05273C10.6172 7.51686 10.4328 7.96198 10.1046 8.29017C9.77644 8.61836 9.33132 8.80273 8.86719 8.80273" stroke="black" stroke-width="0.597698"/>
<path d="M5.36719 2.96875V11.1354M8.86719 2.96875V11.1354" stroke="black" stroke-width="0.597698" stroke-linecap="round"/>
</g>
<defs>
<clipPath id="clip0_4228_28874">
<rect width="14" height="14" fill="white" transform="translate(0.132812 0.0488281)"/>
</clipPath>
</defs>
</svg>
