<svg width="24" height="25" viewBox="0 0 24 25" fill="none" xmlns="http://www.w3.org/2000/svg">
<path d="M9.15323 5.908C10.4202 3.636 11.0532 2.5 12.0002 2.5C12.9472 2.5 13.5802 3.636 14.8472 5.908L15.1752 6.496C15.5352 7.142 15.7152 7.465 15.9952 7.678C16.2752 7.891 16.6252 7.97 17.3252 8.128L17.9612 8.272C20.4212 8.829 21.6502 9.107 21.9432 10.048C22.2352 10.988 21.3972 11.969 19.7202 13.93L19.2862 14.437C18.8102 14.994 18.5712 15.273 18.4642 15.617C18.3572 15.962 18.3932 16.334 18.4652 17.077L18.5312 17.754C18.7842 20.371 18.9112 21.679 18.1452 22.26C17.3792 22.842 16.2272 22.311 13.9252 21.251L13.3282 20.977C12.6742 20.675 12.3472 20.525 12.0002 20.525C11.6532 20.525 11.3262 20.675 10.6722 20.977L10.0762 21.251C7.77323 22.311 6.62124 22.841 5.85624 22.261C5.08924 21.679 5.21623 20.371 5.46923 17.754L5.53523 17.078C5.60723 16.334 5.64323 15.962 5.53523 15.618C5.42923 15.273 5.19024 14.994 4.71424 14.438L4.28024 13.93C2.60324 11.97 1.76523 10.989 2.05723 10.048C2.35024 9.107 3.58024 8.828 6.04024 8.272L6.67624 8.128C7.37524 7.97 7.72424 7.891 8.00524 7.678C8.28524 7.465 8.46523 7.142 8.82523 6.496L9.15323 5.908Z" stroke="#F59E0B" stroke-width="1.5"/>
</svg>
