<svg width="17" height="17" viewBox="0 0 17 17" fill="none" xmlns="http://www.w3.org/2000/svg">
<circle cx="8.28708" cy="8.44333" r="8.20114" fill="#3B82F6"/>
<g clip-path="url(#clip0_5744_58562)">
<path d="M8.15988 10.2935L8.16112 10.294C8.17893 10.3009 8.20269 10.3059 8.23482 10.3059C8.26668 10.3059 8.29696 10.3009 8.32643 10.2911L8.32697 10.2909C8.35129 10.2828 8.36617 10.2726 8.37622 10.2626L8.38252 10.2563L8.38267 10.2565C8.63 10.0327 8.82927 9.75279 8.97932 9.41356L8.97933 9.41352C9.12935 9.0746 9.20291 8.73771 9.20291 8.40156C9.20291 8.0654 9.12935 7.72837 8.97932 7.38918C8.83008 7.05205 8.62894 6.7733 8.37673 6.54987C8.35 6.52784 8.32394 6.51155 8.29861 6.49982L8.37354 6.33799M8.15988 10.2935L7.49032 7.38918C7.63977 7.05156 7.83805 6.77265 8.08405 6.5493C8.10859 6.52924 8.13441 6.51363 8.16176 6.5019C8.18304 6.49279 8.20678 6.48766 8.23482 6.48766C8.263 6.48766 8.2834 6.49282 8.29899 6.5L8.37354 6.33799M8.15988 10.2935C8.13938 10.2857 8.11701 10.273 8.09285 10.2532C7.84068 10.0298 7.63955 9.75094 7.49032 9.41356L7.4903 9.41352M8.15988 10.2935L7.4903 9.41352M8.37354 6.33799C8.41481 6.3571 8.45455 6.38257 8.49276 6.41442M8.37354 6.33799C8.33201 6.31888 8.28577 6.30933 8.23482 6.30933C8.18387 6.30933 8.1361 6.31888 8.09151 6.33799L8.49276 6.41442M8.49276 6.41442C8.76663 6.65644 8.98318 6.95732 9.14241 7.31704C9.30163 7.67702 9.38125 8.03853 9.38125 8.40156L8.49276 6.41442ZM7.4903 9.41352C7.34029 9.0746 7.26672 8.73771 7.26672 8.40156M7.4903 9.41352L7.26672 8.40156M7.26672 8.40156C7.26672 8.06542 7.34028 7.7284 7.4903 7.38922L7.26672 8.40156ZM9.29636 10.8538L9.29631 10.8538C9.24916 10.8445 9.20245 10.8339 9.1562 10.8217C9.42197 10.5734 9.63674 10.2458 9.80375 9.84601C10.0203 9.32764 10.1328 8.84534 10.1328 8.40156C10.1328 7.95778 10.0203 7.47548 9.80375 6.95711C9.63674 6.55732 9.42197 6.22971 9.1562 5.98138C9.20245 5.96925 9.24916 5.95857 9.29631 5.94934L9.29636 5.94933C9.44689 5.91979 9.60249 5.9049 9.76339 5.9049C10.4621 5.9049 11.0485 6.14615 11.5335 6.63109C12.0187 7.11629 12.2601 7.70289 12.2601 8.40156C12.2601 9.10023 12.0187 9.68668 11.5335 10.1716L11.5334 10.1717C11.0485 10.6569 10.4621 10.8982 9.76339 10.8982C9.60249 10.8982 9.44689 10.8833 9.29636 10.8538ZM4.93619 10.1717L4.93613 10.1716C4.45095 9.68668 4.20958 9.10023 4.20958 8.40156C4.20958 7.70289 4.45095 7.11629 4.93616 6.63109C5.42109 6.14615 6.00755 5.9049 6.70625 5.9049C6.86714 5.9049 7.02275 5.91979 7.17328 5.94933L7.17333 5.94934C7.22048 5.95857 7.26718 5.96925 7.31344 5.98138C7.04767 6.22971 6.83289 6.55732 6.66589 6.95711C6.44936 7.47548 6.33684 7.95778 6.33684 8.40156C6.33684 8.84534 6.44936 9.32764 6.66589 9.84601C6.83289 10.2458 7.04767 10.5734 7.31344 10.8217C7.26718 10.8339 7.22048 10.8445 7.17333 10.8538L7.17328 10.8538C7.02275 10.8833 6.86714 10.8982 6.70625 10.8982C6.00758 10.8982 5.42113 10.6569 4.93619 10.1717Z" stroke="black" stroke-width="0.356666"/>
</g>
<defs>
<clipPath id="clip0_5744_58562">
<rect width="9.17142" height="9.17142" fill="white" transform="translate(3.64844 3.80469)"/>
</clipPath>
</defs>
</svg>
